<svg width="44" height="44" viewBox="0 0 44 44" fill="none" xmlns="http://www.w3.org/2000/svg">
<g filter="url(#filter0_d_180_8677)">
<circle cx="22" cy="18" r="12" fill="#D1E3FF"/>
</g>
<path fill-rule="evenodd" clip-rule="evenodd" d="M21.7506 23.7489C21.4159 24.0837 20.8732 24.0837 20.5384 23.7489L15.3956 18.6061C15.0608 18.2714 15.0608 17.7286 15.3956 17.3939L20.5384 12.2511C20.8732 11.9163 21.4159 11.9163 21.7506 12.2511C22.0854 12.5858 22.0854 13.1285 21.7506 13.4632L18.071 17.1429H28.0017C28.4751 17.1429 28.8588 17.5266 28.8588 18C28.8588 18.4734 28.4751 18.8571 28.0017 18.8571L18.071 18.8571L21.7506 22.5368C22.0854 22.8715 22.0854 23.4142 21.7506 23.7489Z" fill="#3D3D3D"/>
<defs>
<filter id="filter0_d_180_8677" x="0" y="0" width="44" height="44" filterUnits="userSpaceOnUse" color-interpolation-filters="sRGB">
<feFlood flood-opacity="0" result="BackgroundImageFix"/>
<feColorMatrix in="SourceAlpha" type="matrix" values="0 0 0 0 0 0 0 0 0 0 0 0 0 0 0 0 0 0 127 0" result="hardAlpha"/>
<feOffset dy="4"/>
<feGaussianBlur stdDeviation="5"/>
<feComposite in2="hardAlpha" operator="out"/>
<feColorMatrix type="matrix" values="0 0 0 0 0 0 0 0 0 0 0 0 0 0 0 0 0 0 0.06 0"/>
<feBlend mode="normal" in2="BackgroundImageFix" result="effect1_dropShadow_180_8677"/>
<feBlend mode="normal" in="SourceGraphic" in2="effect1_dropShadow_180_8677" result="shape"/>
</filter>
</defs>
</svg>
