<svg width="44" height="44" viewBox="0 0 44 44" fill="none" xmlns="http://www.w3.org/2000/svg">
<g filter="url(#filter0_d_180_8681)">
<circle cx="22" cy="18" r="12" fill="#D1E3FF"/>
</g>
<path fill-rule="evenodd" clip-rule="evenodd" d="M16.2929 12.2929C16.6834 11.9024 17.3166 11.9024 17.7071 12.2929L22 16.5858L26.2929 12.2929C26.6834 11.9024 27.3166 11.9024 27.7071 12.2929C28.0976 12.6834 28.0976 13.3166 27.7071 13.7071L23.4142 18L27.7071 22.2929C28.0976 22.6834 28.0976 23.3166 27.7071 23.7071C27.3166 24.0976 26.6834 24.0976 26.2929 23.7071L22 19.4142L17.7071 23.7071C17.3166 24.0976 16.6834 24.0976 16.2929 23.7071C15.9024 23.3166 15.9024 22.6834 16.2929 22.2929L20.5858 18L16.2929 13.7071C15.9024 13.3166 15.9024 12.6834 16.2929 12.2929Z" fill="#3D3D3D"/>
<defs>
<filter id="filter0_d_180_8681" x="0" y="0" width="44" height="44" filterUnits="userSpaceOnUse" color-interpolation-filters="sRGB">
<feFlood flood-opacity="0" result="BackgroundImageFix"/>
<feColorMatrix in="SourceAlpha" type="matrix" values="0 0 0 0 0 0 0 0 0 0 0 0 0 0 0 0 0 0 127 0" result="hardAlpha"/>
<feOffset dy="4"/>
<feGaussianBlur stdDeviation="5"/>
<feComposite in2="hardAlpha" operator="out"/>
<feColorMatrix type="matrix" values="0 0 0 0 0 0 0 0 0 0 0 0 0 0 0 0 0 0 0.06 0"/>
<feBlend mode="normal" in2="BackgroundImageFix" result="effect1_dropShadow_180_8681"/>
<feBlend mode="normal" in="SourceGraphic" in2="effect1_dropShadow_180_8681" result="shape"/>
</filter>
</defs>
</svg>
