<svg width="44" height="44" viewBox="0 0 44 44" fill="none" xmlns="http://www.w3.org/2000/svg">
<g filter="url(#filter0_d_736_6374)">
<circle cx="22" cy="18" r="12" fill="#D1E3FF"/>
</g>
<path fill-rule="evenodd" clip-rule="evenodd" d="M21.1429 11C20.8182 11 20.5214 11.1873 20.3762 11.4837L19.756 12.75H16.8571C16.3838 12.75 16 13.1418 16 13.625C16 14.1082 16.3838 14.5 16.8571 14.5L16.8571 23.25C16.8571 24.2165 17.6247 25 18.5714 25H25.4286C26.3753 25 27.1429 24.2165 27.1429 23.25V14.5C27.6162 14.5 28 14.1082 28 13.625C28 13.1418 27.6162 12.75 27.1429 12.75H24.244L23.6238 11.4837C23.4786 11.1873 23.1818 11 22.8571 11H21.1429ZM19.4286 16.25C19.4286 15.7668 19.8123 15.375 20.2857 15.375C20.7591 15.375 21.1429 15.7668 21.1429 16.25V21.5C21.1429 21.9833 20.7591 22.375 20.2857 22.375C19.8123 22.375 19.4286 21.9833 19.4286 21.5V16.25ZM23.7143 15.375C23.2409 15.375 22.8571 15.7668 22.8571 16.25V21.5C22.8571 21.9833 23.2409 22.375 23.7143 22.375C24.1877 22.375 24.5714 21.9833 24.5714 21.5V16.25C24.5714 15.7668 24.1877 15.375 23.7143 15.375Z" fill="#3D3D3D"/>
<defs>
<filter id="filter0_d_736_6374" x="0" y="0" width="44" height="44" filterUnits="userSpaceOnUse" color-interpolation-filters="sRGB">
<feFlood flood-opacity="0" result="BackgroundImageFix"/>
<feColorMatrix in="SourceAlpha" type="matrix" values="0 0 0 0 0 0 0 0 0 0 0 0 0 0 0 0 0 0 127 0" result="hardAlpha"/>
<feOffset dy="4"/>
<feGaussianBlur stdDeviation="5"/>
<feComposite in2="hardAlpha" operator="out"/>
<feColorMatrix type="matrix" values="0 0 0 0 0 0 0 0 0 0 0 0 0 0 0 0 0 0 0.06 0"/>
<feBlend mode="normal" in2="BackgroundImageFix" result="effect1_dropShadow_736_6374"/>
<feBlend mode="normal" in="SourceGraphic" in2="effect1_dropShadow_736_6374" result="shape"/>
</filter>
</defs>
</svg>
