<svg width="38" height="38" viewBox="0 0 38 38" fill="none" xmlns="http://www.w3.org/2000/svg">
<g clip-path="url(#clip0_176_4015)">
<path d="M33.1991 16.2186C31.5241 10.9879 27.07 7.011 21.5679 6.00977L21.9516 6.85193C21.9516 7.81573 20.5573 8.59239 18.8356 8.59239C17.1138 8.59239 15.7196 7.81573 15.7196 6.85193L16.0939 6.00977C10.6011 7.011 6.147 10.9879 4.46268 16.2186C2.35728 16.883 0.832031 18.848 0.832031 21.178C0.832031 23.5922 2.49764 25.6228 4.73404 26.1936C6.90495 31.8828 12.3884 35.9252 18.8356 35.9252C25.2828 35.9252 30.7662 31.8828 32.9277 26.1936C35.1735 25.6228 36.8297 23.5922 36.8297 21.178C36.8297 18.848 35.3045 16.883 33.1991 16.2186ZM8.66413 15.9379L10.311 14.3378C10.9754 13.6921 12.0421 13.7015 12.6878 14.3659L16.9454 18.7545C17.2355 19.0445 16.9454 19.5218 16.5524 19.4095L15.4856 19.1007C15.7008 19.4937 15.8412 19.9335 15.8412 20.4107C15.8412 21.8798 14.6528 23.0588 13.1931 23.0588C11.7333 23.0588 10.545 21.8798 10.545 20.4107C10.545 19.4095 11.1158 18.5392 11.9486 18.0995L9.00099 17.2573C8.42084 17.0889 8.23369 16.359 8.66413 15.9379ZM27.0326 27.9808H26.0688L25.4512 29.3657C25.0769 30.2359 23.8417 30.2266 23.4581 29.3563L22.8686 27.9808H14.7932L14.185 29.3657C13.8013 30.2359 12.5661 30.2266 12.1825 29.3563L11.593 27.9808H10.6385C10.3672 27.9808 10.1519 27.7656 10.1519 27.5036C10.1519 27.2322 10.3672 27.017 10.6385 27.017H27.0326C27.2946 27.017 27.5098 27.2322 27.5098 27.5036C27.5098 27.7656 27.2946 27.9808 27.0326 27.9808ZM28.6701 17.2573L25.7226 18.0995C26.546 18.5392 27.1168 19.4095 27.1168 20.4107C27.1168 21.8798 25.9284 23.0588 24.4687 23.0588C23.0089 23.0588 21.8206 21.8798 21.8206 20.4107C21.8206 19.9335 21.9609 19.4937 22.1855 19.1007L21.1094 19.4095C20.7164 19.5218 20.4357 19.0445 20.7164 18.7545L24.974 14.3659C25.6196 13.7015 26.6864 13.6921 27.3507 14.3378L28.9976 15.9379C29.4374 16.359 29.2503 17.0889 28.6701 17.2573Z" fill="#EC614D"/>
<path d="M21.8212 20.4145C21.8212 21.8761 23.0059 23.0607 24.4675 23.0607C25.9291 23.0607 27.1138 21.8761 27.1138 20.4145C27.1138 19.4076 26.5448 18.543 25.7176 18.0957L22.1796 19.1054C21.9569 19.4928 21.8212 19.9363 21.8212 20.4145ZM24.4675 19.0034C25.247 19.0034 25.8786 19.635 25.8786 20.4145C25.8786 21.1939 25.247 21.8255 24.4675 21.8255C23.688 21.8255 23.0564 21.1939 23.0564 20.4145C23.0564 19.635 23.688 19.0034 24.4675 19.0034Z" fill="white"/>
<path d="M10.5478 20.4145C10.5478 21.8761 11.7325 23.0607 13.1941 23.0607C14.6557 23.0607 15.8403 21.8761 15.8403 20.4145C15.8403 19.9354 15.7028 19.4928 15.481 19.1054L11.943 18.0957C11.1158 18.543 10.5469 19.4076 10.5469 20.4145H10.5478ZM14.6061 20.4145C14.6061 21.1939 13.9745 21.8255 13.195 21.8255C12.4155 21.8255 11.7839 21.1939 11.7839 20.4145C11.7839 19.635 12.4155 19.0034 13.195 19.0034C13.9745 19.0034 14.6061 19.635 14.6061 20.4145Z" fill="white"/>
<path d="M24.4697 21.8261C25.249 21.8261 25.8808 21.1943 25.8808 20.415C25.8808 19.6357 25.249 19.0039 24.4697 19.0039C23.6904 19.0039 23.0586 19.6357 23.0586 20.415C23.0586 21.1943 23.6904 21.8261 24.4697 21.8261Z" fill="#1D1D1B"/>
<path d="M21.1108 19.411L22.1822 19.105L25.7202 18.0954L28.6678 17.2542C29.2479 17.0885 29.4323 16.3568 28.999 15.9366L27.3503 14.3347C26.685 13.6881 25.621 13.703 24.9744 14.3683L20.7159 18.7504C20.4324 19.0423 20.7187 19.5214 21.1098 19.4101L21.1108 19.411Z" fill="#1D1D1B"/>
<path d="M11.7812 20.415C11.7812 21.1945 12.4129 21.8261 13.1923 21.8261C13.9718 21.8261 14.6034 21.1945 14.6034 20.415C14.6034 19.6355 13.9718 19.0039 13.1923 19.0039C12.4129 19.0039 11.7812 19.6355 11.7812 20.415Z" fill="#1D1D1B"/>
<path d="M8.99652 17.2552L11.9441 18.0964L15.4821 19.1061L16.5535 19.412C16.9446 19.5234 17.231 19.0443 16.9475 18.7523L12.6889 14.3703C12.0423 13.705 10.9784 13.69 10.3131 14.3366L8.66434 15.9386C8.23109 16.3597 8.41543 17.0905 8.99559 17.2561L8.99652 17.2552Z" fill="#1D1D1B"/>
<path d="M18.8338 8.59324C20.5546 8.59324 21.9498 7.81378 21.9498 6.85371L21.5699 6.00594L19.1435 0.595521C19.0238 0.328837 18.6448 0.328837 18.525 0.595521L16.0987 6.005L15.7188 6.85278C15.7188 7.81378 17.1139 8.59231 18.8347 8.59231L18.8338 8.59324Z" fill="#F3C494"/>
<rect x="9" y="25" width="19" height="6" fill="#EC614D"/>
<path d="M19 27C21.64 28.9167 23.4243 28.77 26 27" stroke="#95282B" stroke-linecap="round"/>
<path d="M12 27C14.64 28.9167 16.4243 28.77 19 27" stroke="#95282B" stroke-linecap="round"/>
</g>
<defs>
<clipPath id="clip0_176_4015">
<rect width="37.4294" height="37.4294" fill="white" transform="translate(0 0.395508)"/>
</clipPath>
</defs>
</svg>
