<svg width="380" height="456" viewBox="0 0 380 456" fill="none" xmlns="http://www.w3.org/2000/svg">
<path d="M43.4762 420.465H87.1329V426.844H69.4088V429.824H84.571V446.293H46.0381V429.824H61.2003V426.844H43.4762V420.465ZM45.0447 412.571C48.3909 412.048 51.1445 411.42 53.3055 410.688C55.5014 409.922 57.2268 409.103 58.4816 408.231C59.7712 407.36 60.66 406.454 61.148 405.512C61.6709 404.536 61.9323 403.561 61.9323 402.585V401.016H70.193V402.585C70.193 404.118 69.8445 405.634 69.1474 407.133L85.0938 412.414L82.2182 418.008L64.5987 412.257C62.7514 413.581 60.4335 414.767 57.645 415.812C54.8566 416.823 51.5105 417.625 47.6066 418.217L45.0447 412.571ZM54.2466 435.994V439.915H76.3625V435.994H54.2466ZM92.6451 420.465H136.302V426.844H118.578V429.824H133.74V446.293H95.207V429.824H110.369V426.844H92.6451V420.465ZM94.2136 412.571C97.5597 412.048 100.313 411.42 102.474 410.688C104.67 409.922 106.396 409.103 107.65 408.231C108.94 407.36 109.829 406.454 110.317 405.512C110.84 404.536 111.101 403.561 111.101 402.585V401.016H119.362V402.585C119.362 404.118 119.013 405.634 118.316 407.133L134.263 412.414L131.387 418.008L113.768 412.257C111.92 413.581 109.602 414.767 106.814 415.812C104.025 416.823 100.679 417.625 96.7755 418.217L94.2136 412.571ZM103.415 435.994V439.915H125.531V435.994H103.415ZM172.87 420.988V427.367H151.277V445.196H143.016V404.048H173.864V410.427H151.277V420.988H172.87ZM188.115 414.714V445.196H179.854V414.714H188.115ZM188.115 402.585V410.532H179.854V402.585H188.115ZM204.67 417.904C205.228 417.241 205.908 416.649 206.709 416.126C207.546 415.603 208.435 415.167 209.376 414.819C210.317 414.435 211.293 414.157 212.304 413.982C213.315 413.773 214.291 413.669 215.232 413.669C217.149 413.669 218.944 413.965 220.617 414.557C222.29 415.15 223.754 415.987 225.009 417.067C226.263 418.113 227.239 419.402 227.936 420.936C228.668 422.435 229.034 424.108 229.034 425.955V445.196H220.774V428.779C220.774 425.711 220.111 423.498 218.787 422.139C217.462 420.744 215.65 420.047 213.349 420.047C211.363 420.047 209.62 420.727 208.121 422.086C206.657 423.411 205.699 425.258 205.246 427.628V445.196H196.985V414.714H203.991L204.67 417.904ZM261.988 404.048H270.248V445.196H263.242L262.249 441.17C261.622 441.971 260.855 442.686 259.949 443.313C259.042 443.976 258.049 444.516 256.968 444.934C255.923 445.387 254.825 445.718 253.675 445.927C252.524 446.171 251.392 446.276 250.276 446.241C248.15 446.206 246.128 445.771 244.211 444.934C242.329 444.098 240.656 442.965 239.192 441.536C237.763 440.107 236.63 438.416 235.794 436.464C234.957 434.477 234.539 432.334 234.539 430.033C234.539 427.663 234.975 425.485 235.846 423.498C236.717 421.476 237.885 419.751 239.349 418.322C240.813 416.858 242.486 415.725 244.368 414.923C246.25 414.087 248.202 413.669 250.224 413.669C252.699 413.669 254.947 414.087 256.968 414.923C258.99 415.725 260.663 416.858 261.988 418.322V404.048ZM251.897 439.863C253.152 439.863 254.337 439.636 255.452 439.183C256.568 438.73 257.526 438.085 258.328 437.248C259.164 436.377 259.809 435.331 260.262 434.111C260.75 432.891 260.994 431.532 260.994 430.033C260.994 428.465 260.75 427.071 260.262 425.851C259.809 424.631 259.164 423.602 258.328 422.766C257.526 421.895 256.568 421.232 255.452 420.779C254.337 420.326 253.152 420.099 251.897 420.099C250.642 420.099 249.457 420.326 248.342 420.779C247.226 421.232 246.25 421.895 245.414 422.766C244.612 423.602 243.967 424.631 243.479 425.851C243.026 427.071 242.8 428.465 242.8 430.033C242.8 431.532 243.026 432.891 243.479 434.111C243.967 435.331 244.612 436.377 245.414 437.248C246.25 438.085 247.226 438.73 248.342 439.183C249.457 439.636 250.642 439.863 251.897 439.863ZM284.369 435.157C285.101 436.83 286.217 438.12 287.716 439.026C289.214 439.932 291.079 440.385 293.31 440.385C295.401 440.385 297.301 440.037 299.009 439.34C300.752 438.643 302.32 437.458 303.714 435.784L308.995 439.81C307.182 442.006 305.004 443.714 302.459 444.934C299.915 446.154 297.144 446.764 294.146 446.764C291.567 446.764 289.162 446.363 286.931 445.561C284.701 444.795 282.749 443.679 281.076 442.215C279.437 440.786 278.13 439.043 277.154 436.987C276.213 434.896 275.743 432.56 275.743 429.981C275.743 427.471 276.196 425.188 277.102 423.132C278.008 421.041 279.246 419.263 280.814 417.799C282.383 416.3 284.23 415.15 286.356 414.348C288.517 413.512 290.853 413.094 293.362 413.094C295.802 413.094 298.033 413.494 300.054 414.296C302.111 415.098 303.889 416.213 305.387 417.642C306.886 419.036 308.071 420.727 308.943 422.714C309.849 424.666 310.354 426.809 310.459 429.145L284.369 435.157ZM293.728 419.472C290.626 419.472 288.169 420.343 286.356 422.086C284.579 423.794 283.603 426.13 283.428 429.092L302.25 424.596C301.344 422.783 300.159 421.476 298.695 420.675C297.231 419.873 295.576 419.472 293.728 419.472ZM323.948 418.113C324.68 417.032 325.691 416.196 326.98 415.603C328.27 415.011 329.786 414.714 331.529 414.714H338.012L336.705 421.093H330.17C329.368 421.093 328.601 421.302 327.869 421.72C327.172 422.104 326.545 422.644 325.987 423.341C325.464 424.003 325.046 424.77 324.732 425.642C324.418 426.513 324.262 427.419 324.262 428.36V445.196H316.001V414.714H323.216L323.948 418.113Z" fill="#7152FB"/>
<path d="M117.26 329.888C116.14 331.024 114.74 331.936 113.06 332.624C111.38 333.296 109.66 333.648 107.9 333.68V331.688C109.244 331.64 110.572 331.352 111.884 330.824C113.196 330.28 114.324 329.552 115.268 328.64C116.212 327.712 116.812 326.672 117.068 325.52L119.444 325.928C119.284 326.744 118.972 327.536 118.508 328.304L127.028 331.928L126.188 333.728L117.26 329.888ZM118.556 337.184V339.296H126.188V346.256H108.572V339.296H116.204V337.184H107.156V335.264H127.628V337.184H118.556ZM123.836 341.192H110.948V344.36H123.836V341.192ZM149.538 326V346.496H147.162V336.728H143.226C143.13 339.64 142.53 341.84 141.426 343.328C140.338 344.8 138.906 345.536 137.13 345.536C135.258 345.536 133.77 344.736 132.666 343.136C131.562 341.536 131.01 339.16 131.01 336.008C131.01 332.856 131.562 330.48 132.666 328.88C133.77 327.28 135.258 326.48 137.13 326.48C138.842 326.48 140.234 327.152 141.306 328.496C142.378 329.84 143.002 331.84 143.178 334.496H147.162V326H149.538ZM137.13 343.352C138.25 343.352 139.146 342.752 139.818 341.552C140.506 340.336 140.85 338.488 140.85 336.008C140.85 333.528 140.506 331.688 139.818 330.488C139.146 329.272 138.25 328.664 137.13 328.664C135.994 328.664 135.082 329.272 134.394 330.488C133.722 331.688 133.386 333.528 133.386 336.008C133.386 338.488 133.722 340.336 134.394 341.552C135.082 342.752 135.994 343.352 137.13 343.352ZM172.624 326V346.496H170.224V336.632H165.784V345.272H154.384V326.6H156.736V333.656H163.432V326.6H165.784V334.4H170.224V326H172.624ZM163.432 343.088V335.84H156.736V343.088H163.432ZM193.166 326H195.542V341.288H193.166V326ZM177.35 331.472H187.118V328.52H177.302V326.504H189.47V333.416H179.702V336.44H185.102C186.494 336.44 187.75 336.36 188.87 336.2C190.006 336.04 190.902 335.816 191.558 335.528V337.544C190.918 337.832 190.022 338.056 188.87 338.216C187.718 338.376 186.43 338.456 185.006 338.456H177.35V331.472ZM178.166 340.328H180.566V344.12H196.094V346.232H178.166V340.328ZM225.21 332.888H207.69V326.24H225.21V332.888ZM222.858 328.064H210.066V331.064H222.858V328.064ZM217.626 336.296V338.144H225.282V343.04H209.97V344.48H225.642V346.256H207.642V341.36H222.954V339.92H207.594V338.144H215.274V336.296H206.226V334.448H226.698V336.296H217.626ZM240.88 333.104C240.032 334.704 238.664 335.92 236.776 336.752C234.888 337.584 232.616 338 229.96 338V335.864C231.864 335.864 233.52 335.616 234.928 335.12C236.352 334.608 237.448 333.88 238.216 332.936C238.984 331.992 239.368 330.864 239.368 329.552V328.592H229.96V326.504H241.768V329.24C241.768 329.816 241.72 330.368 241.624 330.896H246.232V326H248.608V341.24H246.232V333.104H240.88ZM249.04 344.096V346.232H231.16V339.704H233.584V344.096H249.04ZM262.622 333.392C259.934 333.392 257.758 333.096 256.094 332.504C254.446 331.896 253.622 330.944 253.622 329.648C253.622 328.368 254.446 327.432 256.094 326.84C257.758 326.232 259.934 325.928 262.622 325.928C265.31 325.928 267.478 326.232 269.126 326.84C270.79 327.432 271.622 328.368 271.622 329.648C271.622 330.944 270.79 331.896 269.126 332.504C267.478 333.096 265.31 333.392 262.622 333.392ZM262.622 331.568C264.558 331.568 266.134 331.408 267.35 331.088C268.566 330.768 269.174 330.288 269.174 329.648C269.174 329.008 268.558 328.528 267.326 328.208C266.11 327.888 264.542 327.728 262.622 327.728C260.702 327.728 259.126 327.888 257.894 328.208C256.678 328.528 256.07 329.008 256.07 329.648C256.07 330.288 256.678 330.768 257.894 331.088C259.11 331.408 260.686 331.568 262.622 331.568ZM252.398 334.664H272.87V336.512H252.398V334.664ZM253.814 341.36H269.126V339.92H253.766V338.144H271.454V343.04H256.142V344.48H271.814V346.256H253.814V341.36ZM105.717 361.888C104.597 363.024 103.197 363.936 101.517 364.624C99.837 365.296 98.117 365.648 96.357 365.68V363.688C97.701 363.64 99.029 363.352 100.341 362.824C101.653 362.28 102.781 361.552 103.725 360.64C104.669 359.712 105.269 358.672 105.525 357.52L107.901 357.928C107.741 358.744 107.429 359.536 106.965 360.304L115.485 363.928L114.645 365.728L105.717 361.888ZM107.013 369.184V371.296H114.645V378.256H97.029V371.296H104.661V369.184H95.613V367.264H116.085V369.184H107.013ZM112.293 373.192H99.405V376.36H112.293V373.192ZM137.827 358V370.24H135.451V358H137.827ZM125.899 365.032C125.115 366.296 124.131 367.336 122.947 368.152C121.763 368.952 120.451 369.448 119.011 369.64V367.432C120.275 367.208 121.387 366.656 122.347 365.776C123.307 364.896 124.043 363.8 124.555 362.488C125.083 361.16 125.355 359.728 125.371 358.192L127.747 358.336C127.747 360.016 127.451 361.608 126.859 363.112L133.363 367.624L132.019 369.352L125.899 365.032ZM120.259 371.368H137.827V378.496H135.427V373.432H120.259V371.368ZM163.217 362.872V365.152H160.337V373.216H157.961V358H160.337V362.872H163.217ZM154.121 361.288C154.121 363.192 153.633 364.8 152.657 366.112C151.681 367.408 150.305 368.384 148.529 369.04C146.769 369.68 144.697 370 142.313 370V367.864C145.225 367.848 147.521 367.296 149.201 366.208C150.881 365.12 151.721 363.576 151.721 361.576V360.592H142.313V358.504H154.121V361.288ZM145.601 376.072H160.889V378.232H143.201V371.776H145.601V376.072ZM184.575 358V378.496H182.319V358H184.575ZM177.375 358.12H179.607V378.136H177.375V368.8H174.663C174.599 371.792 174.167 374 173.367 375.424C172.567 376.832 171.415 377.536 169.911 377.536C168.327 377.536 167.135 376.768 166.335 375.232C165.535 373.68 165.135 371.272 165.135 368.008C165.135 364.744 165.535 362.344 166.335 360.808C167.135 359.256 168.327 358.48 169.911 358.48C171.367 358.48 172.487 359.136 173.271 360.448C174.071 361.76 174.527 363.792 174.639 366.544H177.375V358.12ZM169.911 375.376C170.759 375.376 171.383 374.776 171.783 373.576C172.199 372.376 172.407 370.52 172.407 368.008C172.407 365.496 172.199 363.64 171.783 362.44C171.383 361.24 170.759 360.64 169.911 360.64C169.063 360.64 168.431 361.24 168.015 362.44C167.599 363.64 167.391 365.496 167.391 368.008C167.391 370.52 167.599 372.376 168.015 373.576C168.431 374.776 169.063 375.376 169.911 375.376ZM201.523 365.656C200.803 366.696 199.875 367.552 198.739 368.224C197.619 368.896 196.363 369.312 194.971 369.472V367.408C196.491 367.184 197.739 366.576 198.715 365.584C199.707 364.576 200.323 363.344 200.563 361.888H195.187V359.896H200.611V357.64H203.011V359.896H208.363V361.888H202.987C202.891 362.56 202.723 363.208 202.483 363.832L208.723 367.456L207.595 369.256L201.523 365.656ZM216.115 362.536V364.816H213.235V369.856H210.859V358H213.235V362.536H216.115ZM206.371 372.88C206.179 373.392 205.979 373.816 205.771 374.152L214.003 376.552L213.379 378.52L204.427 375.664C203.419 376.496 202.155 377.128 200.635 377.56C199.115 378.008 197.507 378.232 195.811 378.232V376.24C197.667 376.24 199.331 375.944 200.803 375.352C202.291 374.744 203.299 373.92 203.827 372.88H196.051V370.984H213.499V372.88H206.371ZM239.201 368.584H236.321V378.496H233.945V358H236.321V366.304H239.201V368.584ZM224.537 358.48C225.753 358.48 226.817 358.832 227.729 359.536C228.641 360.224 229.353 361.28 229.865 362.704C230.377 364.128 230.633 365.896 230.633 368.008C230.633 370.12 230.377 371.888 229.865 373.312C229.353 374.736 228.641 375.792 227.729 376.48C226.817 377.184 225.753 377.536 224.537 377.536C222.665 377.536 221.177 376.736 220.073 375.136C218.969 373.536 218.417 371.16 218.417 368.008C218.417 364.856 218.969 362.48 220.073 360.88C221.177 359.28 222.665 358.48 224.537 358.48ZM224.537 375.352C225.657 375.352 226.553 374.752 227.225 373.552C227.913 372.336 228.257 370.488 228.257 368.008C228.257 365.528 227.913 363.688 227.225 362.488C226.553 361.272 225.657 360.664 224.537 360.664C223.401 360.664 222.489 361.272 221.801 362.488C221.129 363.688 220.793 365.528 220.793 368.008C220.793 370.488 221.129 372.336 221.801 373.552C222.489 374.752 223.401 375.352 224.537 375.352ZM250.671 364.648C249.647 365.864 248.335 366.832 246.735 367.552C245.135 368.272 243.399 368.696 241.527 368.824V366.616C243.655 366.44 245.503 365.824 247.071 364.768C248.639 363.712 249.631 362.352 250.047 360.688H242.031V358.528H260.127V360.688H252.567C252.423 361.424 252.191 362.128 251.871 362.8L260.799 366.76L259.815 368.752L250.671 364.648ZM261.327 373.24H252.255V378.976H249.855V373.24H240.855V371.032H261.327V373.24ZM265.405 358H267.805V363.832H283.141V365.944H265.405V358ZM263.941 368.2H284.413V370.312H263.941V368.2ZM265.357 372.136H267.781V376.144H283.357V378.256H265.357V372.136Z" fill="#3D3D3D"/>
<circle cx="191.323" cy="135.073" r="135.073" fill="#FFF7AB"/>
<mask id="mask0_97_3922" style="mask-type:alpha" maskUnits="userSpaceOnUse" x="56" y="0" width="271" height="271">
<circle cx="191.323" cy="135.073" r="135.073" fill="#EBF2F9"/>
</mask>
<g mask="url(#mask0_97_3922)">
<g filter="url(#filter0_i_97_3922)">
<g clip-path="url(#clip0_97_3922)">
<path d="M185.198 219.088L165.601 214.944C164.28 210.583 157.855 188.203 159.466 169.977L162.182 139.271C162.206 134.335 158.216 130.315 153.273 130.293C148.877 130.272 145.227 133.424 144.449 137.592L144.443 137.591L141.039 136.871L141.025 136.868C142.005 132.743 139.941 128.378 135.913 126.618C131.384 124.637 126.108 126.698 124.132 131.221L114.184 160.398C108.279 177.716 93.3473 195.579 90.3706 199.032L70.7735 194.887C68.1574 194.334 61.4274 226.159 64.0436 226.713L96.0605 233.483C108.237 236.058 120.208 228.916 123.911 217.311L127.533 218.077C126.221 230.188 134.275 241.564 146.452 244.139L178.469 250.91C181.085 251.463 187.814 219.641 185.198 219.088Z" fill="#FFC84D"/>
<path d="M87.4881 195.413L70.0688 191.729C68.1776 191.329 66.3203 192.538 65.9204 194.429L59.4888 224.844C59.0889 226.735 60.2978 228.592 62.189 228.992L79.6083 232.676C81.4994 233.075 83.3567 231.867 83.7567 229.975L90.1882 199.561C90.5882 197.67 89.3793 195.812 87.4881 195.413Z" fill="#2F81F9"/>
<path d="M161.824 250.058L179.244 253.742C181.135 254.142 182.992 252.933 183.392 251.042L189.824 220.627C190.224 218.736 189.015 216.879 187.124 216.479L169.704 212.795C167.813 212.395 165.956 213.604 165.556 215.495L159.124 245.91C158.724 247.801 159.933 249.658 161.824 250.058Z" fill="#2F81F9"/>
<path d="M151.917 143.59C147.486 142.653 143.133 145.424 141.89 149.848L144.504 137.604L141.039 136.871L138.375 149.384C139.186 144.736 136.288 140.288 131.768 139.333C127.111 138.348 122.567 141.394 121.561 146.154L120.884 149.355C120.92 149.32 120.955 149.274 120.992 149.235C122.35 145.029 126.584 142.411 130.909 143.326C135.467 144.29 138.371 148.792 137.508 153.45L123.905 217.321L127.583 218.098C127.583 218.098 133.349 190.169 140.341 157.104C140.348 157.074 140.353 157.046 140.352 157.017L140.979 154.088C142.116 149.538 146.553 146.641 151.08 147.599C155.408 148.514 158.217 152.621 157.757 157.017C157.775 157.063 157.788 157.12 157.806 157.17L158.483 153.968C159.49 149.209 156.568 144.584 151.911 143.599L151.917 143.59Z" fill="#F78700"/>
</g>
<g clip-path="url(#clip1_97_3922)">
<path d="M284.689 242.517C280.895 238.232 272.427 227.371 268.177 211.676C267.966 210.891 268.171 210.028 268.714 209.423L272.38 205.315C272.56 205.11 272.747 204.954 272.988 204.825C275.952 203.213 297.778 192.099 314.678 204.765C315.505 205.387 315.406 206.711 314.5 207.214C310.901 209.212 303.523 214.457 301.682 224.636C299.67 235.765 293.939 241.079 289.466 243.369C287.847 244.197 285.894 243.883 284.686 242.521L284.689 242.517Z" fill="#B1B3FB"/>
<path d="M203.315 132.404C206.735 136.995 214.256 148.531 217.168 164.527C217.315 165.327 217.037 166.171 216.444 166.73L212.444 170.513C212.246 170.701 212.048 170.842 211.796 170.952C208.707 172.309 186.024 181.544 170.25 167.498C169.476 166.81 169.688 165.496 170.634 165.074C174.388 163.386 182.182 158.78 184.873 148.794C187.817 137.873 193.973 133.063 198.625 131.156C200.307 130.465 202.229 130.947 203.315 132.404Z" fill="#B1B3FB"/>
<path d="M281.161 169.545C290.687 190.448 281.463 215.115 260.56 224.641C254.997 227.178 249.172 228.346 243.43 228.359L270.673 155.501C274.995 159.277 278.628 163.981 281.161 169.545Z" fill="#8B8BF4"/>
<path d="M214.745 217.008C210.955 213.425 207.761 209.082 205.464 204.043C195.937 183.14 205.161 158.473 226.065 148.946C231.103 146.649 236.362 145.467 241.574 145.25L214.745 217.008Z" fill="#8B8BF4"/>
<path d="M270.672 155.501L243.432 228.358C232.805 228.382 222.497 224.328 214.743 217.005L241.572 145.247C252.225 144.805 262.663 148.51 270.672 155.501Z" fill="#B1B3FB"/>
</g>
<g clip-path="url(#clip2_97_3922)">
<path d="M253.555 26.8055C240.426 11.0048 219.411 3.44221 198.925 7.66797L201.434 10.0524C202.782 13.3957 199.033 18.0406 193.06 20.4498C187.088 22.859 181.165 22.1158 179.816 18.7725L179.936 15.3275C162.284 26.4863 152.398 46.5137 153.875 67.0149C147.501 72.2654 144.96 81.2159 148.22 89.2982C151.598 97.6725 160.217 102.385 168.774 101.236C184.265 117.933 208.942 124.283 231.306 115.262C253.67 106.24 267.034 84.5456 266.572 61.7861C273.563 56.6638 276.467 47.3027 273.089 38.9284C269.829 30.8462 261.788 26.1641 253.555 26.8055ZM168.056 60.1622L171.53 52.3074C172.931 49.1381 176.644 47.6779 179.814 49.0791L200.723 58.3448C202.135 58.9451 201.797 61.0064 200.276 61.1668L196.144 61.5883C197.44 62.6504 198.543 63.9796 199.21 65.635C201.266 70.731 198.793 76.4836 193.73 78.5262C188.666 80.5687 182.894 78.1418 180.839 73.0457C179.438 69.5727 180.2 65.7553 182.474 63.0645L171.071 64.2676C168.823 64.4951 167.152 62.2252 168.056 60.1622ZM248.623 76.2345L245.28 77.5831L245.076 83.2512C244.995 86.7935 240.697 88.4894 238.149 86.0076L234.179 82.061L206.167 93.3605L205.995 99.0154C205.882 102.571 201.585 104.267 199.036 101.785L195.067 97.8384L191.756 99.1739C190.814 99.5536 189.767 99.1082 189.4 98.1993C189.02 97.258 189.466 96.2104 190.407 95.8307L247.275 72.8913C248.184 72.5247 249.231 72.9701 249.611 73.9114C249.978 74.8202 249.532 75.8679 248.623 76.2345ZM239.299 36.7455L230.253 43.7912C233.724 44.1645 236.922 46.3845 238.323 49.8576C240.379 54.9536 237.906 60.7062 232.843 62.7488C227.779 64.7913 222.007 62.3644 219.951 57.2684C219.284 55.613 219.155 53.891 219.384 52.2135L216.084 54.7904C214.877 55.7298 213.236 54.4672 213.804 53.0682L222.432 31.8876C223.742 28.6796 227.429 27.1545 230.637 28.4646L238.589 31.7106C240.703 32.5559 241.076 35.3495 239.299 36.7455Z" fill="#EC614D"/>
<path d="M206.284 89.4182L206.157 93.3793L234.179 82.0759L231.368 79.2998L206.284 89.4182Z" fill="#95282B"/>
<path d="M190.4 95.8257C189.472 96.2001 189.023 97.2569 189.397 98.1853C189.771 99.1136 190.828 99.5629 191.757 99.1884L195.071 97.8516L192.26 95.0754L190.4 95.8257Z" fill="#95282B"/>
<path d="M247.253 72.8916L245.394 73.6419L245.267 77.603L248.61 76.2543C249.538 75.8799 249.987 74.8231 249.613 73.8948C249.239 72.9664 248.182 72.5172 247.253 72.8916Z" fill="#95282B"/>
<path d="M219.967 57.2773C222.012 62.3474 227.779 64.799 232.849 62.7539C237.919 60.7087 240.37 54.9418 238.325 49.8718C236.916 46.3792 233.733 44.1761 230.238 43.782L219.378 52.2349C219.147 53.8903 219.297 55.6187 219.967 57.2773ZM227.171 48.6798C229.875 47.5891 232.95 48.8963 234.041 51.6001C235.131 54.3039 233.824 57.3786 231.12 58.4693C228.416 59.56 225.342 58.2528 224.251 55.549C223.16 52.8452 224.468 49.7704 227.171 48.6798Z" fill="white"/>
<path d="M180.857 73.0537C182.902 78.1237 188.669 80.5754 193.739 78.5302C198.809 76.4851 201.261 70.7182 199.216 65.6481C198.545 63.9862 197.449 62.6434 196.138 61.6099L182.452 63.0582C180.209 65.7672 179.445 69.5624 180.854 73.055L180.857 73.0537ZM194.934 67.3751C196.025 70.0789 194.718 73.1537 192.014 74.2444C189.31 75.335 186.236 74.0279 185.145 71.324C184.054 68.6202 185.361 65.5455 188.065 64.4548C190.769 63.3642 193.844 64.6713 194.934 67.3751Z" fill="white"/>
<path d="M192.262 95.0752L195.072 97.8513L199.057 101.788C201.585 104.286 205.873 102.575 205.984 99.0239L206.163 93.3774L206.29 89.4163L192.262 95.0752Z" fill="white"/>
<path d="M231.371 79.2998L234.182 82.0759L238.166 86.0127C240.695 88.5102 244.982 86.7994 245.094 83.2485L245.273 77.602L245.4 73.6409L231.374 79.2985L231.371 79.2998Z" fill="white"/>
<path d="M231.121 58.4684C233.824 57.3779 235.132 54.3025 234.041 51.5992C232.951 48.8959 229.875 47.5884 227.172 48.6789C224.469 49.7693 223.161 52.8448 224.252 55.5481C225.342 58.2514 228.418 59.5589 231.121 58.4684Z" fill="#1D1D1B"/>
<path d="M216.093 54.7901L219.381 52.2295L230.241 43.7767L239.289 36.7343C241.069 35.348 240.685 32.5518 238.594 31.7006L230.633 28.4507C227.421 27.1387 223.751 28.6794 222.439 31.8919L213.799 53.0511C213.224 54.4605 214.888 55.7217 216.089 54.7882L216.093 54.7901Z" fill="#1D1D1B"/>
<path d="M185.139 71.3254C186.229 74.0292 189.304 75.3364 192.008 74.2457C194.712 73.1551 196.019 70.0803 194.928 67.3765C193.837 64.6727 190.763 63.3655 188.059 64.4562C185.355 65.5469 184.048 68.6216 185.139 71.3254Z" fill="#1D1D1B"/>
<path d="M171.053 64.264L182.454 63.0576L196.14 61.6094L200.284 61.1716C201.797 61.0106 202.12 58.948 200.728 58.332L179.824 49.0904C176.651 47.6873 172.939 49.1241 171.536 52.2979L168.058 60.1618C167.145 62.2287 168.807 64.5058 171.051 64.2685L171.053 64.264Z" fill="#1D1D1B"/>
<path d="M193.05 20.4574C199.019 18.0495 202.768 13.3935 201.424 10.0633L198.92 7.65409L182.933 -7.71844C182.145 -8.47592 180.83 -7.94565 180.788 -6.85298L179.94 15.3065L179.809 18.7788C181.153 22.1123 187.082 22.8607 193.052 20.4528L193.05 20.4574Z" fill="#F3C494"/>
</g>
</g>
</g>
<defs>
<filter id="filter0_i_97_3922" x="45.25" y="-38" width="281.145" height="309.144" filterUnits="userSpaceOnUse" color-interpolation-filters="sRGB">
<feFlood flood-opacity="0" result="BackgroundImageFix"/>
<feBlend mode="normal" in="SourceGraphic" in2="BackgroundImageFix" result="shape"/>
<feColorMatrix in="SourceAlpha" type="matrix" values="0 0 0 0 0 0 0 0 0 0 0 0 0 0 0 0 0 0 127 0" result="hardAlpha"/>
<feOffset dx="-4" dy="-4"/>
<feGaussianBlur stdDeviation="2"/>
<feComposite in2="hardAlpha" operator="arithmetic" k2="-1" k3="1"/>
<feColorMatrix type="matrix" values="0 0 0 0 0 0 0 0 0 0 0 0 0 0 0 0 0 0 0.25 0"/>
<feBlend mode="normal" in2="shape" result="effect1_innerShadow_97_3922"/>
</filter>
<clipPath id="clip0_97_3922">
<rect width="140" height="140" fill="white" transform="translate(78.2148 104) rotate(11.9402)"/>
</clipPath>
<clipPath id="clip1_97_3922">
<rect width="140" height="140" fill="white" transform="translate(295.887 104) rotate(77.4132)"/>
</clipPath>
<clipPath id="clip2_97_3922">
<rect width="140" height="140" fill="white" transform="translate(116.25 18.373) rotate(-21.9683)"/>
</clipPath>
</defs>
</svg>
