<svg width="25" height="24" viewBox="0 0 25 24" fill="none" xmlns="http://www.w3.org/2000/svg">
<g clip-path="url(#clip0_209_5789)">
<path d="M12.5 1.69336C6.701 1.69336 2 5.90176 2 11.093C2 13.1654 2.7554 15.0764 4.0268 16.6292C4.4924 17.198 4.7054 17.9318 4.565 18.653L3.992 21.5912C3.896 22.0844 4.412 22.4702 4.8578 22.238L8.3456 20.4224C8.8382 20.1662 9.4052 20.0828 9.947 20.2058C10.7642 20.3912 11.6186 20.4926 12.5 20.4926C18.299 20.4926 23 16.2842 23 11.093C23 5.90176 18.299 1.69336 12.5 1.69336Z" fill="#E2E5E8"/>
<path d="M8.15196 10.2188C8.80116 10.2188 9.32676 10.745 9.32676 11.3936C9.32676 11.705 9.20316 12.0037 8.98236 12.2245C8.76216 12.4447 8.46336 12.5689 8.15136 12.5689C7.50216 12.5689 6.97656 12.0427 6.97656 11.3941C6.97656 10.7455 7.50276 10.2193 8.15136 10.2193L8.15196 10.2188Z" fill="#333D4B"/>
<path d="M16.8467 12.5683C17.4955 12.5683 18.0215 12.0424 18.0215 11.3936C18.0215 10.7447 17.4955 10.2188 16.8467 10.2188C16.1979 10.2188 15.6719 10.7447 15.6719 11.3936C15.6719 12.0424 16.1979 12.5683 16.8467 12.5683Z" fill="#333D4B"/>
<path d="M12.499 12.5683C13.1478 12.5683 13.6738 12.0424 13.6738 11.3936C13.6738 10.7447 13.1478 10.2188 12.499 10.2188C11.8502 10.2188 11.3242 10.7447 11.3242 11.3936C11.3242 12.0424 11.8502 12.5683 12.499 12.5683Z" fill="#333D4B"/>
</g>
<defs>
<clipPath id="clip0_209_5789">
<rect width="24" height="24" fill="white" transform="translate(0.5)"/>
</clipPath>
</defs>
</svg>
