<svg width="25" height="24" viewBox="0 0 25 24" fill="none" xmlns="http://www.w3.org/2000/svg">
<g clip-path="url(#clip0_209_5773)">
<path d="M21.5025 22.2006C21.1953 22.2006 20.8887 22.0836 20.6541 21.849L15.2655 16.4604C14.7969 15.9918 14.7969 15.2322 15.2655 14.7636C15.7341 14.295 16.4937 14.295 16.9623 14.7636L22.3509 20.1522C22.8195 20.6208 22.8195 21.3804 22.3509 21.849C22.1163 22.0836 21.8097 22.2006 21.5025 22.2006Z" fill="#4E5968"/>
<path d="M18.2794 10.389C18.2794 6.315 14.965 3 10.8904 3C8.85337 3 7.00597 3.8286 5.66797 5.1666L16.1122 15.6114C17.4502 14.2734 18.2794 12.426 18.2794 10.389Z" fill="#E5E9EE"/>
<path d="M16.1114 15.6108L5.6666 5.16602C4.3286 6.50402 3.5 8.35142 3.5 10.3884C3.5 14.4624 6.815 17.7774 10.889 17.7774C12.926 17.7774 14.7734 16.9488 16.1114 15.6108Z" fill="#F0F3F6"/>
<path d="M10.89 18.677C6.31976 18.677 2.60156 14.9588 2.60156 10.3886C2.60156 5.81841 6.31976 2.09961 10.89 2.09961C15.4602 2.09961 19.179 5.81781 19.179 10.3886C19.179 14.9594 15.4608 18.677 10.89 18.677ZM10.89 3.89961C7.31216 3.89961 4.40156 6.81081 4.40156 10.3886C4.40156 13.9664 7.31276 16.877 10.89 16.877C14.4672 16.877 17.379 13.9658 17.379 10.3886C17.379 6.81141 14.4678 3.89961 10.89 3.89961Z" fill="#A3ADB7"/>
</g>
<defs>
<clipPath id="clip0_209_5773">
<rect width="24" height="24" fill="white" transform="translate(0.5)"/>
</clipPath>
</defs>
</svg>
