<svg width="25" height="24" viewBox="0 0 25 24" fill="none" xmlns="http://www.w3.org/2000/svg">
<g clip-path="url(#clip0_209_5764)">
<path d="M11.1882 17.4062H13.8156C14.4024 17.4062 14.8782 17.8826 14.8782 18.4688V22.1588H10.125V18.4688C10.125 17.882 10.6014 17.4062 11.1876 17.4062H11.1882Z" fill="#6B7683"/>
<path d="M21.5698 8.77615L13.1224 2.05915C12.7582 1.76935 12.2422 1.76935 11.8774 2.05915L3.43118 8.77615C2.95418 9.15535 2.67578 9.73195 2.67578 10.3415V19.7597C2.67578 21.0851 3.75038 22.1597 5.07578 22.1597H10.5004V18.4067C10.5004 17.8547 10.948 17.4065 11.5006 17.4065H13.5004C14.0524 17.4065 14.5006 17.8541 14.5006 18.4067V22.1597H19.9246C21.25 22.1597 22.3246 21.0851 22.3246 19.7597V10.3415C22.3246 9.73195 22.0474 9.15535 21.5698 8.77615Z" fill="#D0D5DA"/>
<path d="M21.5698 8.77555L13.123 2.05915C12.7588 1.76935 12.2428 1.76935 11.8786 2.05915L3.43118 8.77615C2.95418 9.15535 2.67578 9.73195 2.67578 10.3415V13.3769L11.878 6.05935C12.2422 5.76955 12.7582 5.76955 13.123 6.05935L22.3246 13.3769V10.3415C22.3246 9.73195 22.0462 9.15535 21.5692 8.77555H21.5698Z" fill="#6BA4FF"/>
</g>
<defs>
<clipPath id="clip0_209_5764">
<rect width="24" height="24" fill="white" transform="translate(0.5)"/>
</clipPath>
</defs>
</svg>
