<svg width="380" height="112" viewBox="0 0 380 112" fill="none" xmlns="http://www.w3.org/2000/svg">
<rect width="380" height="85" transform="translate(0 13.8203)" fill="url(#paint0_linear_191_5681)"/>
<path d="M31.965 41.8363C31.2899 42.6379 30.425 43.2761 29.3701 43.7508C28.3153 44.2255 27.1708 44.505 25.9367 44.5894V43.1337C27.3396 43.0177 28.5579 42.6116 29.5917 41.9154C30.6254 41.2192 31.2794 40.3226 31.5537 39.2255H26.2689V37.8015H38.1991V39.2255H33.215C33.1201 39.7108 32.9671 40.1749 32.7562 40.6179L38.6421 43.2286L37.9934 44.5419L31.965 41.8363ZM38.9902 47.5007H33.0093V51.2823H31.4271V47.5007H25.4936V46.0451H38.9902V47.5007ZM51.9972 43.6559H49.7821V42.2635H51.9972V40.3806H49.7821V38.9882H51.9972V37.4534H53.5478V47.4849H51.9972V43.6559ZM49.0859 45.3014H41.3803V37.6908H42.9151V40.0167H47.5511V37.6908H49.0859V45.3014ZM47.5511 43.9565V41.3458H42.9151V43.9565H47.5511ZM53.8327 49.3678V50.7918H42.0449V46.4723H43.643V49.3678H53.8327ZM39.5215 60.4534V73.9659H37.9551V60.4534H39.5215ZM31.4995 67.621C30.719 67.621 30.0228 67.4733 29.411 67.178C28.8097 66.8826 28.3403 66.4765 28.0028 65.9597C27.6652 65.4322 27.4964 64.831 27.4964 64.1559C27.4964 63.4808 27.6652 62.8848 28.0028 62.368C28.3403 61.8405 28.8097 61.4291 29.411 61.1338C30.0228 60.8384 30.719 60.6908 31.4995 60.6908C32.2696 60.6908 32.9552 60.8384 33.5565 61.1338C34.1683 61.4291 34.6429 61.8405 34.9805 62.368C35.3286 62.8848 35.5026 63.4808 35.5026 64.1559C35.5026 64.831 35.3286 65.4322 34.9805 65.9597C34.6429 66.4765 34.1683 66.8826 33.5565 67.178C32.9552 67.4733 32.2696 67.621 31.4995 67.621ZM31.4995 61.9882C30.7506 61.9882 30.1441 62.1939 29.6799 62.6053C29.2264 63.0167 28.9996 63.5335 28.9996 64.1559C28.9996 64.7782 29.2264 65.2951 29.6799 65.7065C30.1441 66.1179 30.7506 66.3236 31.4995 66.3236C32.2379 66.3236 32.8339 66.1179 33.2875 65.7065C33.7516 65.2951 33.9837 64.7782 33.9837 64.1559C33.9837 63.5335 33.7516 63.0167 33.2875 62.6053C32.8339 62.1939 32.2379 61.9882 31.4995 61.9882ZM32.3856 68.8868C34.4531 68.8868 35.9298 68.7128 36.8159 68.3647V69.7887C35.8876 70.1368 34.4161 70.3109 32.4014 70.3109H32.2748V73.9659H30.7084V70.3109H26.8635V68.8868H32.3856ZM47.9875 63.9977C47.9453 65.0947 47.8187 66.1126 47.6077 67.0514L51.9589 72.1304L50.8197 73.1431L47.1331 68.7444C46.6584 70.0524 46.0202 71.0862 45.2185 71.8456C44.4169 72.6051 43.5044 73.0429 42.4813 73.1589V71.6241C43.2302 71.487 43.8895 71.0756 44.4591 70.39C45.0287 69.7043 45.477 68.813 45.804 67.716C46.1415 66.6084 46.3419 65.369 46.4052 63.9977H42.7186V62.542H46.4052V60.3268H48.0033V62.542H51.5159V63.9977H47.9875ZM54.807 60.4534V73.9659H53.2406V60.4534H54.807ZM58.5104 62.6369H68.5418V61.7192H58.5104V60.6117H70.0608V63.6812H60.0293V64.5831H70.2507V65.6907H58.5104V62.6369ZM57.5294 66.6717H71.026V67.8109H57.5294V66.6717ZM58.4629 70.7697H68.5735V69.8995H58.4312V68.7919H70.0924V71.814H59.9819V72.7001H70.3298V73.8076H58.4629V70.7697ZM91.5394 62.8743V64.3141H89.6407V67.0672H88.0743V60.4534H89.6407V62.8743H91.5394ZM85.7642 63.7445C85.7642 64.3563 85.5902 64.8996 85.2421 65.3742C84.9045 65.8489 84.4246 66.2234 83.8022 66.4976C83.1799 66.7613 82.4626 66.8932 81.6504 66.8932C80.8381 66.8932 80.1209 66.7613 79.4985 66.4976C78.8761 66.2234 78.3909 65.8489 78.0428 65.3742C77.6947 64.8996 77.5207 64.3563 77.5207 63.7445C77.5207 63.1327 77.6947 62.5895 78.0428 62.1148C78.3909 61.6401 78.8761 61.2709 79.4985 61.0072C80.1209 60.733 80.8381 60.5958 81.6504 60.5958C82.4626 60.5958 83.1799 60.733 83.8022 61.0072C84.4246 61.2709 84.9045 61.6401 85.2421 62.1148C85.5902 62.5895 85.7642 63.1327 85.7642 63.7445ZM79.0713 63.7445C79.0713 64.3141 79.3086 64.773 79.7833 65.1211C80.2685 65.4586 80.8909 65.6274 81.6504 65.6274C82.4098 65.6274 83.0269 65.4586 83.5016 65.1211C83.9763 64.773 84.2136 64.3141 84.2136 63.7445C84.2136 63.1749 83.9763 62.7213 83.5016 62.3838C83.0269 62.0357 82.4098 61.8616 81.6504 61.8616C80.8909 61.8616 80.2685 62.0357 79.7833 62.3838C79.3086 62.7213 79.0713 63.1749 79.0713 63.7445ZM80.0681 72.5577H89.973V73.7918H78.5175V70.2159H88.0901V69.0451H78.4859V67.8109H89.6407V71.3868H80.0681V72.5577ZM105.464 60.4534V73.9659H103.898V68.9343H101.319V67.4944H103.898V64.947H101.319V63.5072H103.898V60.4534H105.464ZM98.5497 71.7191C99.1932 71.7191 99.8313 71.6663 100.464 71.5608C101.108 71.4553 101.635 71.3182 102.046 71.1494V72.5735C101.646 72.7528 101.118 72.8952 100.464 73.0007C99.8208 73.1062 99.1615 73.1589 98.4864 73.1589H93.4549V66.2761H98.6921V62.3838H93.4232V60.9439H100.227V67.7001H95.0055V71.7191H98.5497ZM108.962 60.9439H120.686V62.3996H110.56V67.4628H120.845V68.9185H108.962V60.9439ZM108.076 71.8456H121.572V73.3171H108.076V71.8456ZM134.453 60.4534H136.019V67.3679H134.453V60.4534ZM124.026 63.3331H130.466V61.9566H123.994V60.7857H132.016V64.4407H125.576V65.8331H129.136C130.054 65.8331 130.882 65.7803 131.621 65.6749C132.369 65.5694 132.96 65.4164 133.393 65.216V66.4027C132.971 66.5926 132.38 66.7402 131.621 66.8457C130.861 66.9512 130.012 67.0039 129.073 67.0039H124.026V63.3331ZM124.58 70.39H134.484V69.2824H124.548V68.1115H136.019V71.4975H126.114V72.6209H136.351V73.7918H124.58V70.39ZM151.732 60.4534V73.9659H150.229V60.4534H151.732ZM146.859 60.5325H148.346V73.7285H146.859V67.3837H144.438C144.216 68.5651 143.847 69.5883 143.33 70.4533C142.824 71.3077 142.201 71.9617 141.463 72.4152C140.735 72.8794 139.928 73.1167 139.042 73.1273V71.6558C139.876 71.6347 140.603 71.334 141.226 70.7539C141.848 70.1632 142.328 69.3457 142.666 68.3014C143.003 67.2571 143.172 66.044 143.172 64.6622V62.368H139.042V60.9439H144.691V64.5831C144.691 65.0261 144.675 65.4639 144.643 65.8964H146.859V60.5325ZM167.571 71.8773V73.3171H154.075V71.8773H157.176V68.2223C156.395 67.8636 155.789 67.3942 155.356 66.8141C154.934 66.2234 154.723 65.5536 154.723 64.8046C154.723 63.9818 154.971 63.2593 155.467 62.6369C155.973 62.0146 156.685 61.5346 157.603 61.1971C158.531 60.8595 159.602 60.6908 160.815 60.6908C162.028 60.6908 163.093 60.8595 164.011 61.1971C164.939 61.5346 165.651 62.0146 166.147 62.6369C166.653 63.2593 166.907 63.9818 166.907 64.8046C166.907 65.5536 166.69 66.2234 166.258 66.8141C165.836 67.3942 165.24 67.8584 164.47 68.2065V71.8773H167.571ZM156.385 64.8046C156.385 65.332 156.569 65.8014 156.938 66.2128C157.308 66.6137 157.824 66.9248 158.489 67.1464C159.164 67.3679 159.939 67.4786 160.815 67.4786C161.69 67.4786 162.466 67.3679 163.141 67.1464C163.816 66.9248 164.338 66.6137 164.707 66.2128C165.076 65.8014 165.261 65.332 165.261 64.8046C165.261 64.2667 165.076 63.7973 164.707 63.3964C164.338 62.985 163.816 62.6686 163.141 62.4471C162.466 62.2255 161.69 62.1148 160.815 62.1148C159.939 62.1148 159.164 62.2255 158.489 62.4471C157.824 62.6686 157.308 62.985 156.938 63.3964C156.569 63.7973 156.385 64.2667 156.385 64.8046ZM158.742 71.8773H162.903V68.7128C162.271 68.8394 161.574 68.9026 160.815 68.9026C160.066 68.9026 159.375 68.8394 158.742 68.7128V71.8773ZM169.597 60.9597H171.607L171.195 70.121H169.993L169.597 60.9597ZM170.594 73.8867C170.267 73.8867 169.988 73.776 169.756 73.5545C169.534 73.333 169.423 73.0534 169.423 72.7159C169.423 72.3889 169.534 72.1146 169.756 71.8931C169.988 71.6716 170.267 71.5608 170.594 71.5608C170.921 71.5608 171.195 71.6716 171.417 71.8931C171.649 72.1146 171.765 72.3889 171.765 72.7159C171.765 73.0534 171.654 73.333 171.433 73.5545C171.211 73.776 170.932 73.8867 170.594 73.8867Z" fill="#3D3D3D"/>
<path d="M71.1025 43.9565H69.0139V41.678H71.1025V40.792H69.5361V38.5135H71.1025V37.4534H73.7449V44.89H71.1025V43.9565ZM68.9032 39.4471C68.9032 41.2297 68.1806 42.5536 66.7355 43.4185C65.3009 44.2729 63.3653 44.7001 60.9286 44.7001V42.4375C61.9729 42.427 62.8906 42.3215 63.6817 42.1211C64.4834 41.9206 65.1005 41.6411 65.533 41.2825C65.9655 40.9238 66.1817 40.5072 66.1817 40.0325V39.8268H60.9286V37.6117H68.9032V39.4471ZM67.7007 45.0799C69.5783 45.0799 71.0761 45.3225 72.1943 45.8077C73.3124 46.2824 73.8714 47.0471 73.8714 48.102C73.8714 49.1568 73.3124 49.9216 72.1943 50.3962C71.0761 50.8815 69.5783 51.1241 67.7007 51.1241C65.8231 51.1241 64.3252 50.8815 63.2071 50.3962C62.0889 49.9216 61.5299 49.1568 61.5299 48.102C61.5299 47.0471 62.0889 46.2824 63.2071 45.8077C64.3252 45.3225 65.8231 45.0799 67.7007 45.0799ZM67.7007 48.988C68.6922 48.988 69.4886 48.9195 70.0899 48.7823C70.6911 48.6347 70.9917 48.4079 70.9917 48.102C70.9917 47.8066 70.6858 47.5851 70.074 47.4374C69.4728 47.2898 68.6817 47.2159 67.7007 47.2159C66.7197 47.2159 65.9233 47.2898 65.3115 47.4374C64.7102 47.5851 64.4096 47.8066 64.4096 48.102C64.4096 48.4079 64.7102 48.6347 65.3115 48.7823C65.9127 48.9195 66.7091 48.988 67.7007 48.988ZM80.5336 42.5641C79.9746 43.081 79.3153 43.4976 78.5558 43.8141C77.8069 44.1305 76.9894 44.2993 76.1033 44.3204V42.2318C76.8733 42.1791 77.5221 41.9787 78.0495 41.6306C78.5875 41.2825 78.9566 40.8553 79.1571 40.3489H76.2615V38.3237H79.252V37.2161H81.9576V38.3237H84.9323V40.3489H81.8944C81.8205 40.6021 81.7678 40.7656 81.7361 40.8394L85.2013 42.2951L84.2044 44.1938L80.5336 42.5641ZM90.217 39.4471V41.8679H88.6347V44.2413H85.9607V37.4534H88.6347V39.4471H90.217ZM79.3469 49.1779H88.7772V50.9659H76.7204V47.0102H86.0082V46.5039H76.6887V44.716H88.6347V48.6558H79.3469V49.1779ZM95.9298 43.2919C95.3813 43.9143 94.7273 44.4153 93.9678 44.7951C93.2189 45.1643 92.4014 45.3594 91.5153 45.3805V43.1337C92.2854 43.0704 92.9394 42.8067 93.4773 42.3426C94.0153 41.8679 94.3845 41.293 94.5849 40.6179H91.6736V38.4661H94.6482V37.2161H97.3697V38.4661H100.344V40.0167H101.737V37.4534H104.411V45.4754H101.737V42.3901H99.9646V40.6179H97.3222C97.2378 40.9555 97.164 41.2034 97.1007 41.3616L100.74 43.3236L99.5374 45.2856L95.9298 43.2919ZM98.3665 45.6495C100.255 45.6495 101.753 45.8657 102.86 46.2982C103.978 46.7201 104.537 47.4163 104.537 48.3868C104.537 49.3572 103.978 50.0534 102.86 50.4754C101.753 50.9078 100.255 51.1241 98.3665 51.1241C96.4783 51.1241 94.9752 50.9078 93.8571 50.4754C92.7495 50.0534 92.1957 49.3572 92.1957 48.3868C92.1957 47.4163 92.7495 46.7201 93.8571 46.2982C94.9752 45.8657 96.4783 45.6495 98.3665 45.6495ZM98.3665 49.083C99.3897 49.083 100.197 49.0302 100.787 48.9247C101.378 48.8193 101.673 48.6399 101.673 48.3868C101.673 47.9227 100.571 47.6906 98.3665 47.6906C96.1619 47.6906 95.0596 47.9227 95.0596 48.3868C95.0596 48.6399 95.3549 48.8193 95.9456 48.9247C96.5364 49.0302 97.3433 49.083 98.3665 49.083ZM119.545 50.776L119.022 50.1589C118.02 50.7602 116.944 51.0608 115.795 51.0608C114.814 51.0608 113.959 50.9026 113.231 50.5861C112.503 50.2697 111.944 49.8319 111.554 49.2728C111.174 48.7032 110.985 48.0492 110.985 47.3109C110.985 46.4881 111.211 45.7813 111.665 45.1906C112.129 44.5894 112.772 44.0725 113.595 43.64C113.237 43.1654 112.957 42.7065 112.757 42.2635C112.567 41.8204 112.472 41.3563 112.472 40.8711C112.472 40.2171 112.646 39.6369 112.994 39.1306C113.353 38.6137 113.843 38.2129 114.465 37.9281C115.088 37.6433 115.779 37.5009 116.538 37.5009C117.308 37.5009 117.989 37.638 118.579 37.9123C119.181 38.176 119.645 38.5505 119.972 39.0357C120.309 39.5209 120.478 40.0694 120.478 40.6812C120.478 41.4934 120.23 42.1896 119.734 42.7698C119.239 43.35 118.548 43.8721 117.662 44.3362L119.323 46.2982C119.597 45.7181 119.782 45.1062 119.877 44.4628H122.408C122.271 45.8974 121.802 47.1737 121 48.2918L123.089 50.776H119.545ZM116.554 39.5104C116.185 39.5104 115.874 39.6317 115.621 39.8743C115.378 40.1169 115.257 40.4228 115.257 40.792C115.257 41.0768 115.33 41.351 115.478 41.6147C115.626 41.8679 115.853 42.1844 116.158 42.5641C116.665 42.332 117.055 42.0789 117.329 41.8046C117.614 41.5198 117.757 41.1875 117.757 40.8078C117.757 40.4281 117.641 40.1169 117.408 39.8743C117.187 39.6317 116.902 39.5104 116.554 39.5104ZM115.984 48.7823C116.522 48.7823 117.039 48.6452 117.535 48.371L115.13 45.5071C114.687 45.7392 114.355 45.987 114.133 46.2507C113.922 46.5039 113.817 46.8098 113.817 47.1685C113.817 47.6431 114.012 48.0334 114.402 48.3393C114.792 48.6347 115.32 48.7823 115.984 48.7823ZM135.742 44.9691C134.497 44.9691 133.406 44.8162 132.467 44.5103C131.528 44.1938 130.8 43.7508 130.283 43.1812C129.777 42.601 129.524 41.9365 129.524 41.1875C129.524 40.4386 129.777 39.7793 130.283 39.2097C130.8 38.6296 131.528 38.1865 132.467 37.8806C133.406 37.5642 134.497 37.406 135.742 37.406C136.987 37.406 138.079 37.5642 139.017 37.8806C139.956 38.1865 140.679 38.6296 141.185 39.2097C141.702 39.7793 141.96 40.4386 141.96 41.1875C141.96 41.9365 141.702 42.601 141.185 43.1812C140.679 43.7508 139.956 44.1938 139.017 44.5103C138.079 44.8162 136.987 44.9691 135.742 44.9691ZM135.742 39.7952C134.74 39.7952 133.923 39.9165 133.29 40.1591C132.657 40.4017 132.34 40.7445 132.34 41.1875C132.34 41.6306 132.657 41.9734 133.29 42.216C133.923 42.4586 134.74 42.5799 135.742 42.5799C136.744 42.5799 137.562 42.4586 138.195 42.216C138.828 41.9734 139.144 41.6306 139.144 41.1875C139.144 40.7445 138.828 40.4017 138.195 40.1591C137.562 39.9165 136.744 39.7952 135.742 39.7952ZM142.577 48.2444H137.119V51.2823H134.366V48.2444H128.907V45.7761H142.577V48.2444ZM151.787 37.5167H154.255V50.7285H151.787V48.988L149.714 50.1747L148.005 47.2634C147.204 49.2465 145.949 50.2697 144.24 50.333V47.7855C144.894 47.7117 145.416 47.0999 145.806 45.9501C146.196 44.8003 146.402 43.2761 146.423 41.3774H144.445V38.9882H146.423V37.406H148.955V38.9882H150.917V41.3774H148.955C148.934 42.4217 148.876 43.3025 148.781 44.0198L151.787 48.8773V45.1115H150.316V42.5957H151.787V37.5167ZM157.689 37.4534V50.9659H155.189V37.4534H157.689ZM169.667 39.716H160.364V37.4534H172.389V41.9945H169.667V39.716ZM167.753 44.7634V46.2666H172.452V51.1241H169.731V48.4975H160.3V46.2666H165.063V44.7634H159.573V42.5166H173.243V44.7634H167.753Z" fill="#EA5665"/>
<g clip-path="url(#clip0_191_5681)" filter="url(#filter0_i_191_5681)">
<path d="M285.949 76.1433L322.347 82.6699L285.949 76.1433ZM334.269 84.8636L342.618 86.3705C344.57 86.7227 346.489 85.1172 346.902 82.8267L349.091 70.6964C349.505 68.4059 348.282 66.152 346.317 65.8787L339.179 64.5906L330.759 54.0812C329.206 51.7014 327.305 50.399 324.992 49.9814L302.165 45.862C299.101 45.3089 297.487 44.9753 293.63 47.7063L283.087 54.5098L267.82 56.53C265.857 56.7882 263.949 57.7833 263.536 60.0708L262.189 67.5383C261.775 69.8288 263.012 72.0009 264.964 72.3531L273.55 73.9027" fill="#E9EDED"/>
<path d="M283.056 54.4952L305.444 58.5356C307.396 58.8878 309.315 57.2822 309.727 54.9947L311.046 47.6908L304.656 46.7729L297.648 45.2035L283.056 54.4952ZM339.2 64.6275L321.256 61.3891C319.304 61.0369 318.068 58.8619 318.48 56.5743L319.799 49.2704L327.742 51.1262L339.2 64.6275Z" fill="#4BBFEB"/>
<path d="M302.428 44.4048C300.906 44.1301 299.547 43.8515 297.982 44.0848C296.414 44.3146 294.804 45.0592 292.774 46.4967L282.565 53.0858L267.629 55.0572C266.468 55.2095 265.263 55.5834 264.224 56.3431C263.09 57.1812 262.322 58.4229 262.077 59.8113L260.73 67.2757C260.196 70.2352 261.81 73.2959 264.705 73.8184L273.286 75.3669L273.813 72.4454L265.232 70.8968C264.224 70.7149 263.357 69.421 263.649 67.8024L264.996 60.338C265.138 59.5492 265.468 59.1077 265.979 58.7353C266.487 58.3624 267.218 58.1082 268.018 58.0022L283.616 55.9393L294.466 48.938L294.501 48.914C296.324 47.6201 297.454 47.1603 298.424 47.0156C299.395 46.871 300.371 47.0441 301.911 47.319L324.737 51.4384C326.662 51.7859 328.136 52.7639 329.523 54.8906L329.563 54.952L338.372 65.9509L346.114 67.3481C346.587 67.4033 346.988 67.7051 347.307 68.2634C347.622 68.824 347.785 69.6256 347.639 70.4348L345.45 82.5651C345.157 84.1836 343.895 85.0961 342.884 84.9136L334.537 83.4073L334.01 86.3288L342.36 87.8357C345.252 88.3577 347.837 86.0519 348.371 83.0923L350.56 70.9621C350.828 69.4809 350.573 68.0141 349.893 66.8052C349.206 65.5953 348.019 64.618 346.526 64.4121L339.994 63.2331L331.926 53.1583L332.011 53.273C330.288 50.6332 327.965 49.0135 325.26 48.5253L302.437 44.4064L302.428 44.4048ZM322.611 81.2067L286.209 74.6854L285.681 77.6069L322.084 84.1282L322.611 81.2067Z" fill="#E9EDED"/>
<path d="M309.585 47.4283L308.267 54.7322C307.975 56.3507 306.713 57.2575 305.702 57.075L283.32 53.0357L282.793 55.9573L305.178 59.9971C308.07 60.5191 310.655 58.219 311.189 55.2595L312.507 47.9556L309.585 47.4283ZM318.332 49.0069L317.014 56.3108C316.48 59.2703 318.094 62.3281 320.99 62.8506L338.934 66.0891L339.461 63.1675L321.517 59.9291C320.509 59.7472 319.641 58.4561 319.933 56.8375L321.251 49.5336L318.329 49.0064L318.332 49.0069Z" fill="#E9EDED"/>
<path fill-rule="evenodd" clip-rule="evenodd" d="M302.648 62.581C302.261 62.5111 301.862 62.5981 301.538 62.8226C301.215 63.0471 300.994 63.3907 300.924 63.7782C300.854 64.1656 300.941 64.5648 301.165 64.8882C301.39 65.2116 301.734 65.4326 302.121 65.5026L306.162 66.2318C306.549 66.3017 306.948 66.2147 307.272 65.9902C307.595 65.7657 307.816 65.422 307.886 65.0346C307.956 64.6472 307.869 64.248 307.644 63.9246C307.42 63.6012 307.076 63.3801 306.689 63.3102L302.648 62.581ZM316.812 65.1371C316.425 65.0672 316.025 65.1542 315.702 65.3787C315.378 65.6032 315.157 65.9469 315.088 66.3343C315.018 66.7217 315.105 67.1209 315.329 67.4443C315.554 67.7677 315.897 67.9888 316.285 68.0587L320.325 68.7879C320.713 68.8578 321.112 68.7709 321.435 68.5464C321.759 68.3218 321.98 67.9782 322.05 67.5907C322.12 67.2033 322.033 66.8041 321.808 66.4807C321.584 66.1573 321.24 65.9363 320.852 65.8663L316.812 65.1371Z" fill="#576D7E"/>
<path fill-rule="evenodd" clip-rule="evenodd" d="M343.472 78.9834C343.085 78.9134 342.686 79.0004 342.362 79.2249C342.039 79.4494 341.818 79.7931 341.748 80.1805C341.678 80.5679 341.765 80.9671 341.989 81.2905C342.214 81.6139 342.558 81.835 342.945 81.9049L346.755 82.5924C347.142 82.6624 347.542 82.5754 347.865 82.3509C348.188 82.1264 348.409 81.7827 348.479 81.3953C348.549 81.0079 348.462 80.6086 348.238 80.2853C348.013 79.9619 347.67 79.7408 347.282 79.6709L343.472 78.9834Z" fill="black"/>
<path d="M305.451 44.9748L306.242 40.5925C306.534 38.9739 308.073 37.9061 309.691 38.1982C311.31 38.4903 312.377 40.0284 312.085 41.647L311.294 46.0293" fill="#F05542"/>
<path fill-rule="evenodd" clip-rule="evenodd" d="M311.525 27.9277C311.137 27.8641 310.74 27.957 310.42 28.186C310.1 28.4151 309.885 28.7615 309.82 29.1494L309.293 32.071C309.223 32.4584 309.31 32.8576 309.535 33.181C309.759 33.5044 310.103 33.7255 310.49 33.7954C310.878 33.8653 311.277 33.7784 311.601 33.5539C311.924 33.3294 312.145 32.9857 312.215 32.5982L312.742 29.6767C312.78 29.4817 312.779 29.2808 312.738 29.0863C312.697 28.8919 312.617 28.7079 312.504 28.5448C312.39 28.3816 312.245 28.2431 312.077 28.1371C311.909 28.0311 311.721 27.9599 311.525 27.9277ZM318.687 32.2579C318.425 32.2026 318.154 32.2186 317.901 32.3047C317.648 32.3907 317.423 32.5437 317.25 32.7469L314.967 35.3364C314.824 35.48 314.713 35.651 314.639 35.8392C314.565 36.0275 314.53 36.2289 314.537 36.431C314.544 36.6331 314.592 36.8315 314.678 37.0144C314.764 37.1973 314.887 37.3607 315.039 37.4945C315.19 37.6282 315.368 37.7298 315.56 37.7925C315.752 37.8553 315.955 37.8782 316.156 37.8597C316.358 37.8412 316.553 37.7817 316.731 37.685C316.908 37.5882 317.064 37.4562 317.189 37.2971L319.475 34.7109C319.651 34.5178 319.773 34.2817 319.829 34.0262C319.885 33.7707 319.872 33.5047 319.792 33.2557C319.712 33.0068 319.568 32.7836 319.374 32.6083C319.179 32.4331 318.942 32.3121 318.687 32.2579ZM303.445 29.5072C303.181 29.4486 302.906 29.4634 302.65 29.5497C302.393 29.6359 302.166 29.7905 301.991 29.9968C301.816 30.2031 301.701 30.4534 301.658 30.7203C301.615 30.9872 301.646 31.2608 301.747 31.5115L302.984 34.7335C303.054 34.9156 303.159 35.0821 303.293 35.2237C303.427 35.3653 303.587 35.4794 303.765 35.559C303.943 35.6386 304.135 35.6823 304.33 35.6878C304.525 35.6932 304.719 35.66 304.901 35.5905C305.083 35.521 305.249 35.4163 305.391 35.2824C305.533 35.1484 305.647 34.9879 305.726 34.81C305.806 34.6321 305.849 34.4404 305.855 34.2455C305.86 34.0507 305.827 33.8566 305.758 33.6745L304.518 30.4491C304.433 30.2146 304.29 30.0051 304.102 29.8405C303.915 29.6759 303.689 29.5614 303.445 29.5072Z" fill="#34485C"/>
<path d="M280.904 67.5588C276.79 66.8164 272.792 69.4976 272.057 73.5702C271.962 74.0961 271.935 74.6159 271.954 75.1292L286.646 77.7807C286.843 77.3065 286.999 76.8099 287.094 76.284C287.829 72.2114 285.026 68.3027 280.91 67.5598L280.904 67.5588ZM329.364 76.3044C325.244 75.561 321.249 78.2427 320.514 82.3153C320.419 82.8412 320.392 83.361 320.411 83.8742L323.449 84.4226C323.347 83.9011 323.342 83.3655 323.432 82.842C323.876 80.385 326.251 78.7593 328.836 79.2259C331.416 79.6915 333.076 82.0424 332.633 84.5024C332.535 85.0429 332.332 85.5339 332.065 85.9775L335.106 86.5263C335.303 86.0521 335.462 85.556 335.557 85.0302C336.292 80.9575 333.48 77.0473 329.364 76.3044Z" fill="#CAD1D8"/>
<path d="M280.638 69.0159C283.989 69.6206 286.221 72.7507 285.632 76.017C285.043 79.2804 281.858 81.4299 278.51 80.8256C275.159 80.2209 272.927 77.0939 273.516 73.8305C274.105 70.5642 277.29 68.4116 280.641 69.0164L280.638 69.0159ZM329.098 77.7615C332.446 78.3657 334.678 81.4958 334.088 84.7621C333.5 88.0255 330.315 90.175 326.967 89.5707C323.616 88.966 321.384 85.839 321.973 82.5756C322.562 79.3093 325.747 77.1567 329.098 77.7615Z" fill="#34485C"/>
<path fill-rule="evenodd" clip-rule="evenodd" d="M261.273 64.1496L260.746 67.0711L266.247 68.064C268.217 68.4496 268.754 65.4725 266.775 65.1424L261.273 64.1496Z" fill="#F9BC36"/>
<path fill-rule="evenodd" clip-rule="evenodd" d="M343.473 78.9834C341.504 78.5977 340.966 81.5777 342.946 81.9049L348.395 82.8882L348.922 79.9667L343.473 78.9834Z" fill="#F05542"/>
<path d="M280.086 72.0754C281.704 72.3675 282.777 73.8767 282.493 75.4514C282.42 75.8292 282.273 76.1888 282.06 76.5098C281.848 76.8307 281.575 77.1067 281.256 77.322C280.937 77.5373 280.578 77.6876 280.201 77.7644C279.824 77.8412 279.436 77.8431 279.058 77.7698C277.445 77.4787 276.366 75.9684 276.65 74.3937C276.724 74.0159 276.871 73.6563 277.083 73.3353C277.295 73.0144 277.569 72.7384 277.888 72.5231C278.207 72.3078 278.565 72.1576 278.942 72.0808C279.319 72.0039 279.708 72.002 280.086 72.0754ZM328.545 80.821C330.161 81.1125 331.237 82.6223 330.953 84.197C330.88 84.5748 330.733 84.9344 330.52 85.2554C330.308 85.5764 330.035 85.8523 329.716 86.0676C329.397 86.2829 329.038 86.4332 328.661 86.51C328.284 86.5868 327.896 86.5887 327.518 86.5154C325.902 86.2238 324.826 84.714 325.11 83.1393C325.184 82.7615 325.331 82.4019 325.543 82.0809C325.755 81.76 326.029 81.484 326.348 81.2687C326.667 81.0534 327.025 80.9032 327.402 80.8263C327.779 80.7495 328.168 80.7476 328.545 80.821Z" fill="#576D7E"/>
</g>
<g clip-path="url(#clip1_191_5681)" filter="url(#filter1_i_191_5681)">
<path d="M244.392 46.7961L258.551 95.8709C258.994 97.4075 258.108 99.0123 256.572 99.4556C255.035 99.8989 253.43 99.0126 252.987 97.4762L238.828 48.4014L244.392 46.7961Z" fill="#E5E3E5"/>
<path d="M267.588 37.2187L271.971 52.4081C272.597 54.578 271.345 56.8447 269.175 57.4708L243.575 64.8568L238.059 45.7383C237.158 42.6151 235.086 40.1618 232.447 38.7113C229.822 37.2484 226.635 36.8044 223.52 37.7031L253.041 29.1859C256.156 28.2871 259.344 28.7311 261.977 30.1918C264.607 31.6446 266.687 34.0955 267.588 37.2187Z" fill="#EA4E4E"/>
<path opacity="0.08" d="M267.587 37.2188L271.969 52.4068C272.596 54.5778 271.344 56.8447 269.173 57.471L263.532 59.0986C265.703 58.4722 266.954 56.2053 266.328 54.0343L261.946 38.8463C261.045 35.7231 258.957 33.2745 256.326 31.8217C253.693 30.3609 250.505 29.9171 247.398 30.8135L253.04 29.1859C256.155 28.2872 259.343 28.731 261.976 30.1918C264.606 31.6446 266.686 34.0956 267.587 37.2188Z" fill="black"/>
<path d="M238.055 45.7337L243.572 64.8561L221 71.3685L215.483 52.2462C213.684 46.0129 217.28 39.5021 223.513 37.7037C229.746 35.9053 236.257 39.5006 238.055 45.7337Z" fill="#F96464"/>
<path d="M225.353 86.4564L221 71.3691L243.572 64.8567L247.925 79.9439C249.724 86.1772 246.129 92.688 239.895 94.4864C233.662 96.2848 227.151 92.6895 225.353 86.4564Z" fill="#EA4E4E"/>
<path d="M222.724 68.2489L217.905 51.548C216.495 46.6593 219.325 41.5352 224.213 40.1249C229.101 38.7146 234.225 41.544 235.636 46.4326L240.454 63.1334L222.724 68.2489Z" fill="#6D6D6D"/>
<path d="M230.972 51.2191L234.216 62.4643C234.58 63.7255 233.856 65.0374 232.595 65.4013L212.855 71.0965C211.593 71.4605 210.282 70.736 209.918 69.4748L206.673 58.2296C206.309 56.9682 207.034 55.6564 208.295 55.2926L228.035 49.5973C229.296 49.2333 230.608 49.9577 230.972 51.2191Z" fill="#FFCE29"/>
<path opacity="0.08" d="M230.968 51.2177L234.213 62.4678C234.577 63.7266 233.853 65.037 232.594 65.4003L230.391 66.0359C231.65 65.6727 232.373 64.3622 232.01 63.1034L228.764 51.8534C228.401 50.5946 227.091 49.8711 225.832 50.2344L228.035 49.5987C229.294 49.2355 230.604 49.9589 230.968 51.2177Z" fill="black"/>
<path d="M234.228 63.7159C234.216 63.7368 234.215 63.7632 234.204 63.784L223.532 60.4287L222.496 62.0477C221.882 63.0727 220.68 63.4196 219.607 62.8813L217.877 62.069L210.625 70.5956C210.602 70.5761 210.587 70.5541 210.574 70.5404L217.04 61.6813L206.782 56.8516L219.25 61.6467C220.296 62.0881 221.498 61.7412 222.14 60.8131L230.145 50.1109L224.026 59.6568L234.228 63.7159Z" fill="#F2B816"/>
<path opacity="0.4" d="M209.89 62.7222L210.357 64.3427C210.434 64.6074 210.281 64.8838 210.016 64.9601C209.752 65.0365 209.475 64.8839 209.399 64.6192L208.931 62.9987C208.855 62.7341 209.007 62.4576 209.272 62.3813C209.537 62.3049 209.813 62.4575 209.89 62.7222Z" fill="white"/>
<g opacity="0.4">
<path d="M245.291 56.3825L245.931 58.6008C246.099 59.1857 245.762 59.7965 245.177 59.9653C244.592 60.134 243.981 59.7967 243.813 59.2118L243.173 56.9936C243.004 56.4087 243.341 55.7978 243.926 55.629C244.511 55.4601 245.122 55.7976 245.291 56.3825Z" fill="white"/>
</g>
<path d="M239.881 25.628L237.668 26.2666L242.099 41.6235L244.312 40.9849L239.881 25.628Z" fill="#F2F0F0"/>
<path d="M241.057 40.8333L241.474 42.2796C241.77 43.3045 242.84 43.8956 243.865 43.5999C244.89 43.3042 245.481 42.2337 245.185 41.2088L244.768 39.7625C244.653 39.3627 244.235 39.1321 243.835 39.2474L241.572 39.9005C241.172 40.0157 240.941 40.4335 241.057 40.8333Z" fill="#E5E3E5"/>
<path d="M246.814 19.2135L237.701 21.8426C237.034 22.0352 236.648 22.7328 236.841 23.4005L238.393 28.7812L248.715 25.8033C249.209 25.6607 249.311 25.0053 248.884 24.7189L246.664 23.2316C246.42 23.0677 246.328 22.7517 246.448 22.4827L247.534 20.0412C247.744 19.5711 247.308 19.0709 246.814 19.2135Z" fill="#EA4E4E"/>
</g>
<defs>
<filter id="filter0_i_191_5681" x="248.82" y="-3.2002" width="114.359" height="114.362" filterUnits="userSpaceOnUse" color-interpolation-filters="sRGB">
<feFlood flood-opacity="0" result="BackgroundImageFix"/>
<feBlend mode="normal" in="SourceGraphic" in2="BackgroundImageFix" result="shape"/>
<feColorMatrix in="SourceAlpha" type="matrix" values="0 0 0 0 0 0 0 0 0 0 0 0 0 0 0 0 0 0 127 0" result="hardAlpha"/>
<feOffset dx="-4" dy="-4"/>
<feGaussianBlur stdDeviation="2"/>
<feComposite in2="hardAlpha" operator="arithmetic" k2="-1" k3="1"/>
<feColorMatrix type="matrix" values="0 0 0 0 0.764706 0 0 0 0 0.764706 0 0 0 0 0.764706 0 0 0 0.25 0"/>
<feBlend mode="normal" in2="shape" result="effect1_innerShadow_191_5681"/>
</filter>
<filter id="filter1_i_191_5681" x="187.82" y="8.7998" width="103.043" height="103.042" filterUnits="userSpaceOnUse" color-interpolation-filters="sRGB">
<feFlood flood-opacity="0" result="BackgroundImageFix"/>
<feBlend mode="normal" in="SourceGraphic" in2="BackgroundImageFix" result="shape"/>
<feColorMatrix in="SourceAlpha" type="matrix" values="0 0 0 0 0 0 0 0 0 0 0 0 0 0 0 0 0 0 127 0" result="hardAlpha"/>
<feOffset dx="-4" dy="-4"/>
<feGaussianBlur stdDeviation="2"/>
<feComposite in2="hardAlpha" operator="arithmetic" k2="-1" k3="1"/>
<feColorMatrix type="matrix" values="0 0 0 0 0.766667 0 0 0 0 0.766667 0 0 0 0 0.766667 0 0 0 0.25 0"/>
<feBlend mode="plus-lighter" in2="shape" result="effect1_innerShadow_191_5681"/>
</filter>
<linearGradient id="paint0_linear_191_5681" x1="0" y1="42.5" x2="380" y2="42.5" gradientUnits="userSpaceOnUse">
<stop stop-color="#EBEBF7"/>
<stop offset="1" stop-color="#FFDFFA"/>
</linearGradient>
<clipPath id="clip0_191_5681">
<rect width="95" height="95" fill="white" transform="translate(269.691 0.799805) rotate(10.2301)"/>
</clipPath>
<clipPath id="clip1_191_5681">
<rect width="80" height="80" fill="white" transform="translate(191.82 34.9766) rotate(-16.0936)"/>
</clipPath>
</defs>
</svg>
