<svg width="32" height="32" viewBox="0 0 32 32" fill="none" xmlns="http://www.w3.org/2000/svg">
<path d="M15.8788 31.7283C24.4305 31.7283 31.3631 24.7958 31.3631 16.244C31.3631 7.69231 24.4305 0.759766 15.8788 0.759766C7.32707 0.759766 0.394531 7.69231 0.394531 16.244C0.394531 24.7958 7.32707 31.7283 15.8788 31.7283Z" fill="#FFC84D"/>
<path d="M20.357 19.1281C23.7298 19.1281 26.464 16.3939 26.464 13.0211C26.464 9.64826 23.7298 6.91406 20.357 6.91406C16.9842 6.91406 14.25 9.64826 14.25 13.0211C14.25 16.3939 16.9842 19.1281 20.357 19.1281Z" fill="white"/>
<path d="M22.9484 8.61731C22.1884 8.16871 21.3027 7.91211 20.3559 7.91211C17.5333 7.91211 15.2461 10.2002 15.2461 13.0219C15.2461 14.6659 16.023 16.1285 17.229 17.0638C18.0934 17.7336 19.1782 18.1326 20.3568 18.1326C23.1793 18.1326 25.4666 15.8445 25.4666 13.0228C25.4666 11.147 24.4553 9.50566 22.9484 8.61731ZM18.4766 15.403C17.8342 15.403 17.2537 15.1393 16.8352 14.7155L18.8491 10.8249C19.9453 11.0037 20.7842 11.9486 20.7842 13.0954C20.7842 14.3695 19.7507 15.403 18.4766 15.403Z" fill="#E0E0E0"/>
<path d="M10.7888 10.2871C9.87215 10.2871 9.12891 11.0304 9.12891 11.947C9.12891 12.8637 9.87215 13.6069 10.7888 13.6069C11.7055 13.6069 12.4487 12.8637 12.4487 11.947C12.4487 11.0304 11.7055 10.2871 10.7888 10.2871Z" fill="black"/>
<path d="M16.8342 14.7148L18.8481 10.8243C18.726 10.8048 18.603 10.7871 18.4756 10.7871C17.2014 10.7871 16.168 11.8206 16.168 13.0947C16.168 13.7265 16.4228 14.2981 16.8342 14.7148Z" fill="#6B6B6B"/>
<path d="M18.8498 10.8242L16.8359 14.7148C17.2545 15.1386 17.8349 15.4023 18.4773 15.4023C19.7523 15.4023 20.7849 14.3688 20.7849 13.0947C20.7849 11.9479 19.9461 11.003 18.8498 10.8242Z" fill="black"/>
<path d="M18.4766 10.7869C18.604 10.7869 18.727 10.8046 18.8491 10.824L20.3559 7.91211C17.5333 7.91211 15.2461 10.2002 15.2461 13.0219C15.2461 14.1217 15.5929 15.1402 16.184 15.9737L16.8352 14.7155C16.4238 14.2987 16.169 13.7271 16.169 13.0954C16.169 11.8212 17.2024 10.7878 18.4766 10.7878V10.7869Z" fill="#EDEDED"/>
<path d="M13.3526 21.2464C14.6011 21.3552 15.5293 21.6746 16.1159 21.9436C16.3681 22.0586 16.6167 21.779 16.4743 21.541C16.015 20.7748 15.1028 19.728 13.4977 19.5874C11.8927 19.4467 10.8123 20.3191 10.2266 20.9942C10.0452 21.2039 10.2416 21.5233 10.5097 21.4534C11.1344 21.2906 12.1033 21.1367 13.3526 21.2464Z" fill="#FF6D00"/>
<path d="M10.3445 8.06747C11.3709 8.15684 11.9433 8.4444 12.4282 8.71073C12.7078 8.8638 12.9511 8.65764 12.8317 8.33822C12.5751 7.64807 11.8053 6.86324 10.4604 6.74556C9.11546 6.62787 8.22091 7.26671 7.8484 7.90201C7.67586 8.19577 7.87937 8.44086 8.18109 8.33822C8.7049 8.16126 9.31808 7.9781 10.3445 8.06747Z" fill="black"/>
<path d="M19.1512 5.41317C18.1248 5.50254 17.5523 5.7901 17.0674 6.05643C16.7878 6.20951 16.5445 6.00334 16.664 5.68393C16.9206 4.99377 17.6903 4.20894 19.0353 4.09126C20.3802 3.97358 21.2747 4.61241 21.6472 5.24771C21.8198 5.54147 21.6163 5.78656 21.3145 5.68393C20.7907 5.50696 20.1776 5.32381 19.1512 5.41317Z" fill="black"/>
</svg>
