<svg width="1024" height="1024" viewBox="0 0 1024 1024" fill="none" xmlns="http://www.w3.org/2000/svg">
<path d="M908.27 432.901C862.446 289.797 740.589 180.997 590.062 153.605C590.062 179.973 559.604 201.999 512.5 201.999C465.396 201.999 470.5 148.1 440.302 153.605C290.03 180.997 168.174 289.797 122.094 432.901C64.4936 451.077 22.7656 504.837 22.7656 568.581C22.7656 634.629 68.3336 690.181 129.518 705.797C188.91 861.445 338.926 972.037 515.31 972.037C691.693 972.037 841.709 861.445 900.845 705.797C962.285 690.181 1007.6 634.629 1007.6 568.581C1007.6 504.837 965.87 451.077 908.27 432.901ZM237.038 425.221L282.094 381.445C300.27 363.781 329.454 364.037 347.118 382.213L463.598 502.277C471.534 510.213 463.598 523.269 452.846 520.197L423.662 511.749C429.55 522.501 433.39 534.533 433.39 547.589C433.39 587.781 400.878 620.037 360.942 620.037C321.006 620.037 288.494 587.781 288.494 547.589C288.494 520.197 304.11 496.389 326.894 484.357L246.254 461.317C230.382 456.709 225.262 436.741 237.038 425.221ZM739.566 754.693H713.198L696.302 792.581C686.062 816.389 652.27 816.133 641.774 792.325L625.646 754.693H404.718L388.078 792.581C377.582 816.389 343.79 816.133 333.294 792.325L317.166 754.693H291.054C283.63 754.693 277.742 748.805 277.742 741.637C277.742 734.213 283.63 728.325 291.054 728.325H739.566C746.734 728.325 752.622 734.213 752.622 741.637C752.622 748.805 746.734 754.693 739.566 754.693ZM784.366 461.317L703.726 484.357C726.254 496.389 741.87 520.197 741.87 547.589C741.87 587.781 709.358 620.037 669.422 620.037C629.486 620.037 596.974 587.781 596.974 547.589C596.974 534.533 600.814 522.501 606.958 511.749L577.518 520.197C566.766 523.269 559.086 510.213 566.766 502.277L683.246 382.213C700.91 364.037 730.094 363.781 748.27 381.445L793.326 425.221C805.358 436.741 800.238 456.709 784.366 461.317Z" fill="#CBB4E2"/>
<g filter="url(#filter0_i_697_6518)">
<path d="M908.27 432.901C862.446 289.797 740.589 180.997 590.062 153.605C590.062 179.973 559.604 201.999 512.5 201.999C465.396 201.999 470.5 148.1 440.302 153.605C290.03 180.997 168.174 289.797 122.094 432.901C64.4936 451.077 22.7656 504.837 22.7656 568.581C22.7656 634.629 68.3336 690.181 129.518 705.797C188.91 861.445 338.926 972.037 515.31 972.037C691.693 972.037 841.709 861.445 900.845 705.797C962.285 690.181 1007.6 634.629 1007.6 568.581C1007.6 504.837 965.87 451.077 908.27 432.901ZM237.038 425.221L282.094 381.445C300.27 363.781 329.454 364.037 347.118 382.213L463.598 502.277C471.534 510.213 463.598 523.269 452.846 520.197L423.662 511.749C429.55 522.501 433.39 534.533 433.39 547.589C433.39 587.781 400.878 620.037 360.942 620.037C321.006 620.037 288.494 587.781 288.494 547.589C288.494 520.197 304.11 496.389 326.894 484.357L246.254 461.317C230.382 456.709 225.262 436.741 237.038 425.221ZM739.566 754.693H713.198L696.302 792.581C686.062 816.389 652.27 816.133 641.774 792.325L625.646 754.693H404.718L388.078 792.581C377.582 816.389 343.79 816.133 333.294 792.325L317.166 754.693H291.054C283.63 754.693 277.742 748.805 277.742 741.637C277.742 734.213 283.63 728.325 291.054 728.325H739.566C746.734 728.325 752.622 734.213 752.622 741.637C752.622 748.805 746.734 754.693 739.566 754.693ZM784.366 461.317L703.726 484.357C726.254 496.389 741.87 520.197 741.87 547.589C741.87 587.781 709.358 620.037 669.422 620.037C629.486 620.037 596.974 587.781 596.974 547.589C596.974 534.533 600.814 522.501 606.958 511.749L577.518 520.197C566.766 523.269 559.086 510.213 566.766 502.277L683.246 382.213C700.91 364.037 730.094 363.781 748.27 381.445L793.326 425.221C805.358 436.741 800.238 456.709 784.366 461.317Z" fill="#CBB4E2"/>
</g>
<circle cx="515.415" cy="552.415" r="409.415" fill="#CBB4E2"/>
<path d="M597.022 547.684C597.022 587.671 629.431 620.081 669.418 620.081C709.406 620.081 741.815 587.671 741.815 547.684C741.815 520.138 726.25 496.484 703.62 484.247L606.826 511.869C600.734 522.468 597.022 534.602 597.022 547.684ZM669.418 509.079C690.743 509.079 708.023 526.359 708.023 547.684C708.023 569.009 690.743 586.289 669.418 586.289C648.094 586.289 630.814 569.009 630.814 547.684C630.814 526.359 648.094 509.079 669.418 509.079Z" fill="white"/>
<path d="M288.572 547.684C288.572 587.671 320.982 620.081 360.969 620.081C400.956 620.081 433.366 587.671 433.366 547.684C433.366 534.577 429.603 522.468 423.536 511.869L326.742 484.247C304.112 496.484 288.547 520.138 288.547 547.684H288.572ZM399.6 547.684C399.6 569.009 382.32 586.289 360.995 586.289C339.67 586.289 322.39 569.009 322.39 547.684C322.39 526.359 339.67 509.079 360.995 509.079C382.32 509.079 399.6 526.359 399.6 547.684Z" fill="white"/>
<path d="M597.022 547.684C597.022 587.671 629.431 620.081 669.418 620.081C709.406 620.081 741.815 587.671 741.815 547.684C741.815 520.138 726.25 496.484 703.62 484.247L606.826 511.869C600.734 522.468 597.022 534.602 597.022 547.684ZM669.418 509.079C690.743 509.079 708.023 526.359 708.023 547.684C708.023 569.009 690.743 586.289 669.418 586.289C648.094 586.289 630.814 569.009 630.814 547.684C630.814 526.359 648.094 509.079 669.418 509.079Z" fill="white"/>
<path d="M288.572 547.684C288.572 587.671 320.982 620.081 360.969 620.081C400.956 620.081 433.366 587.671 433.366 547.684C433.366 534.577 429.603 522.468 423.536 511.869L326.742 484.247C304.112 496.484 288.547 520.138 288.547 547.684H288.572ZM399.6 547.684C399.6 569.009 382.32 586.289 360.995 586.289C339.67 586.289 322.39 569.009 322.39 547.684C322.39 526.359 339.67 509.079 360.995 509.079C382.32 509.079 399.6 526.359 399.6 547.684Z" fill="white"/>
<circle cx="669.41" cy="547.41" r="72.41" fill="white"/>
<circle cx="360.41" cy="547.41" r="72.41" fill="white"/>
<path d="M669.468 586.298C690.789 586.298 708.073 569.014 708.073 547.693C708.073 526.372 690.789 509.088 669.468 509.088C648.147 509.088 630.863 526.372 630.863 547.693C630.863 569.014 648.147 586.298 669.468 586.298Z" fill="#1D1D1B"/>
<path d="M322.363 547.693C322.363 569.017 339.643 586.298 360.968 586.298C382.293 586.298 399.573 569.017 399.573 547.693C399.573 526.368 382.293 509.088 360.968 509.088C339.643 509.088 322.363 526.368 322.363 547.693Z" fill="#1D1D1B"/>
<g filter="url(#filter1_i_697_6518)">
<path d="M757.607 284.04C722.178 253.037 707.496 211.853 724.793 192.087L747.888 181.477L895.319 113.798C902.589 110.465 910.392 117.293 908.053 124.942L860.55 280.029L853.098 304.327C835.785 324.113 793.034 315.006 757.605 284.003L757.607 284.04Z" fill="#F3C494"/>
</g>
<g filter="url(#filter2_i_697_6518)">
<path d="M284.827 284.04C320.256 253.037 334.937 211.853 317.641 192.087L294.545 181.477L147.115 113.798C139.844 110.465 132.042 117.293 134.38 124.942L181.883 280.029L189.335 304.327C206.649 324.113 249.4 315.006 284.829 284.003L284.827 284.04Z" fill="#F3C494"/>
</g>
<rect x="264" y="652" width="514" height="175" fill="#CBB4E2"/>
<g filter="url(#filter3_d_697_6518)">
<circle cx="512" cy="646" r="26" fill="#D9D9D9"/>
</g>
<g filter="url(#filter4_i_697_6518)">
<ellipse cx="514.5" cy="780.5" rx="93.5" ry="61.5" fill="#95282B"/>
</g>
<path d="M733.379 436.276C742.559 425.962 741.635 410.156 731.321 400.977C717.354 388.546 705.567 378.055 691.6 365.624C681.286 356.445 665.48 357.361 656.3 367.675C647.121 377.989 648.041 393.791 658.354 402.971L698.084 438.33C708.398 447.509 724.2 446.589 733.379 436.276Z" fill="#1D1D1B"/>
<path d="M615.626 437.025C605.714 427.413 605.476 411.582 615.088 401.671C628.106 388.249 639.092 376.921 652.11 363.5C661.723 353.588 677.553 353.343 687.465 362.955C697.376 372.568 697.618 388.395 688.005 398.307L650.977 436.485C641.364 446.396 625.537 446.638 615.626 437.025Z" fill="#1D1D1B"/>
<path d="M415.379 436.276C424.559 425.962 423.635 410.156 413.321 400.977C399.354 388.546 387.567 378.055 373.6 365.624C363.286 356.445 347.48 357.361 338.3 367.675C329.121 377.989 330.041 393.791 340.354 402.971L380.084 438.33C390.398 447.509 406.2 446.589 415.379 436.276Z" fill="#1D1D1B"/>
<path d="M297.626 437.025C287.714 427.413 287.476 411.582 297.088 401.671C310.106 388.249 321.092 376.921 334.11 363.5C343.723 353.588 359.553 353.343 369.465 362.955C379.376 372.568 379.618 388.395 370.005 398.307L332.977 436.485C323.364 446.396 307.537 446.638 297.626 437.025Z" fill="#1D1D1B"/>
<g clip-path="url(#clip0_697_6518)">
<path d="M797.5 433.357C777.908 433.357 762.031 449.235 762.031 468.826C762.031 488.417 777.908 504.294 797.5 504.294C817.091 504.294 832.968 488.417 832.968 468.826C832.968 449.235 817.091 433.357 797.5 433.357Z" fill="#EF4452"/>
<path d="M797.5 394.588C783.932 394.588 772.938 383.594 772.938 370.025V220.695C772.938 207.127 783.932 196.133 797.5 196.133C811.068 196.133 822.062 207.127 822.062 220.695V370.025C822.062 383.594 811.068 394.588 797.5 394.588Z" fill="#EF4452"/>
</g>
<defs>
<filter id="filter0_i_697_6518" x="18.7656" y="149.21" width="988.832" height="822.827" filterUnits="userSpaceOnUse" color-interpolation-filters="sRGB">
<feFlood flood-opacity="0" result="BackgroundImageFix"/>
<feBlend mode="normal" in="SourceGraphic" in2="BackgroundImageFix" result="shape"/>
<feColorMatrix in="SourceAlpha" type="matrix" values="0 0 0 0 0 0 0 0 0 0 0 0 0 0 0 0 0 0 127 0" result="hardAlpha"/>
<feOffset dx="-10" dy="-10"/>
<feGaussianBlur stdDeviation="2"/>
<feComposite in2="hardAlpha" operator="arithmetic" k2="-1" k3="1"/>
<feColorMatrix type="matrix" values="0 0 0 0 0 0 0 0 0 0 0 0 0 0 0 0 0 0 0.25 0"/>
<feBlend mode="normal" in2="shape" result="effect1_innerShadow_697_6518"/>
</filter>
<filter id="filter1_i_697_6518" x="713.535" y="112.932" width="194.941" height="205.857" filterUnits="userSpaceOnUse" color-interpolation-filters="sRGB">
<feFlood flood-opacity="0" result="BackgroundImageFix"/>
<feBlend mode="normal" in="SourceGraphic" in2="BackgroundImageFix" result="shape"/>
<feColorMatrix in="SourceAlpha" type="matrix" values="0 0 0 0 0 0 0 0 0 0 0 0 0 0 0 0 0 0 127 0" result="hardAlpha"/>
<feOffset dx="-10" dy="4"/>
<feGaussianBlur stdDeviation="2"/>
<feComposite in2="hardAlpha" operator="arithmetic" k2="-1" k3="1"/>
<feColorMatrix type="matrix" values="0 0 0 0 0 0 0 0 0 0 0 0 0 0 0 0 0 0 0.25 0"/>
<feBlend mode="normal" in2="shape" result="effect1_innerShadow_697_6518"/>
</filter>
<filter id="filter2_i_697_6518" x="133.957" y="112.932" width="194.941" height="205.857" filterUnits="userSpaceOnUse" color-interpolation-filters="sRGB">
<feFlood flood-opacity="0" result="BackgroundImageFix"/>
<feBlend mode="normal" in="SourceGraphic" in2="BackgroundImageFix" result="shape"/>
<feColorMatrix in="SourceAlpha" type="matrix" values="0 0 0 0 0 0 0 0 0 0 0 0 0 0 0 0 0 0 127 0" result="hardAlpha"/>
<feOffset dx="10" dy="4"/>
<feGaussianBlur stdDeviation="2"/>
<feComposite in2="hardAlpha" operator="arithmetic" k2="-1" k3="1"/>
<feColorMatrix type="matrix" values="0 0 0 0 0 0 0 0 0 0 0 0 0 0 0 0 0 0 0.25 0"/>
<feBlend mode="normal" in2="shape" result="effect1_innerShadow_697_6518"/>
</filter>
<filter id="filter3_d_697_6518" x="482" y="620" width="60" height="60" filterUnits="userSpaceOnUse" color-interpolation-filters="sRGB">
<feFlood flood-opacity="0" result="BackgroundImageFix"/>
<feColorMatrix in="SourceAlpha" type="matrix" values="0 0 0 0 0 0 0 0 0 0 0 0 0 0 0 0 0 0 127 0" result="hardAlpha"/>
<feOffset dy="4"/>
<feGaussianBlur stdDeviation="2"/>
<feComposite in2="hardAlpha" operator="out"/>
<feColorMatrix type="matrix" values="0 0 0 0 0 0 0 0 0 0 0 0 0 0 0 0 0 0 0.25 0"/>
<feBlend mode="normal" in2="BackgroundImageFix" result="effect1_dropShadow_697_6518"/>
<feBlend mode="normal" in="SourceGraphic" in2="effect1_dropShadow_697_6518" result="shape"/>
</filter>
<filter id="filter4_i_697_6518" x="417" y="715" width="191" height="127" filterUnits="userSpaceOnUse" color-interpolation-filters="sRGB">
<feFlood flood-opacity="0" result="BackgroundImageFix"/>
<feBlend mode="normal" in="SourceGraphic" in2="BackgroundImageFix" result="shape"/>
<feColorMatrix in="SourceAlpha" type="matrix" values="0 0 0 0 0 0 0 0 0 0 0 0 0 0 0 0 0 0 127 0" result="hardAlpha"/>
<feOffset dx="-10" dy="-10"/>
<feGaussianBlur stdDeviation="2"/>
<feComposite in2="hardAlpha" operator="arithmetic" k2="-1" k3="1"/>
<feColorMatrix type="matrix" values="0 0 0 0 0 0 0 0 0 0 0 0 0 0 0 0 0 0 0.25 0"/>
<feBlend mode="normal" in2="shape" result="effect1_innerShadow_697_6518"/>
</filter>
<clipPath id="clip0_697_6518">
<rect width="393" height="393" fill="white" transform="translate(601 166)"/>
</clipPath>
</defs>
</svg>
