<svg width="711" height="170" viewBox="0 0 711 170" fill="none" xmlns="http://www.w3.org/2000/svg">
<path d="M252.34 98.5625H235.348V81.7461H252.34V98.5625ZM281.461 132.137H206.285V94.9883H281.461V132.137ZM222.867 118.602H264.996V108.289H222.867V118.602ZM293.121 86.3164H195.094V72.8398H293.121V86.3164ZM249.996 29.832C249.996 36.2773 248.297 42.1953 244.898 47.5859C241.539 52.9766 236.539 57.5078 229.898 61.1797C223.258 64.8516 215.191 67.293 205.699 68.5039L199.605 55.4375C207.77 54.4609 214.527 52.6445 219.879 49.9883C225.23 47.293 229.156 44.207 231.656 40.7305C234.156 37.2148 235.406 33.582 235.406 29.832V26.7852H249.996V29.832ZM252.75 29.832C252.75 33.582 254 37.2344 256.5 40.7891C259.039 44.3047 262.965 47.4102 268.277 50.1055C273.629 52.7617 280.348 54.5391 288.434 55.4375L282.574 68.5039C272.965 67.293 264.84 64.8516 258.199 61.1797C251.559 57.4688 246.578 52.918 243.258 47.5273C239.938 42.1367 238.277 36.2383 238.277 29.832V26.7852H252.75V29.832ZM356.051 98.5625H339.059V81.7461H356.051V98.5625ZM385.172 132.137H309.996V94.9883H385.172V132.137ZM326.578 118.602H368.707V108.289H326.578V118.602ZM396.832 86.3164H298.805V72.8398H396.832V86.3164ZM353.707 29.832C353.707 36.2773 352.008 42.1953 348.609 47.5859C345.25 52.9766 340.25 57.5078 333.609 61.1797C326.969 64.8516 318.902 67.293 309.41 68.5039L303.316 55.4375C311.48 54.4609 318.238 52.6445 323.59 49.9883C328.941 47.293 332.867 44.207 335.367 40.7305C337.867 37.2148 339.117 33.582 339.117 29.832V26.7852H353.707V29.832ZM356.461 29.832C356.461 33.582 357.711 37.2344 360.211 40.7891C362.75 44.3047 366.676 47.4102 371.988 50.1055C377.34 52.7617 384.059 54.5391 392.145 55.4375L386.285 68.5039C376.676 67.293 368.551 64.8516 361.91 61.1797C355.27 57.4688 350.289 52.918 346.969 47.5273C343.648 42.1367 341.988 36.2383 341.988 29.832V26.7852H356.461V29.832ZM463.57 48.582H403.805V35.0469H463.57V48.582ZM401.051 95.457C413.746 95.457 425.445 95.2812 436.148 94.9297C446.852 94.5781 456.891 93.8164 466.266 92.6445L467.027 104.656C457.418 106.375 447.379 107.547 436.91 108.172C426.441 108.758 415.094 109.09 402.867 109.168L401.051 95.457ZM428.824 99.1484H412.477V45.8281H428.824V99.1484ZM454.723 99.1484H438.492V45.8281H454.723V99.1484ZM487.77 133.191H470.836V25.6133H487.77V133.191ZM503.004 79.6367H484.078V65.9844H503.004V79.6367ZM596.52 102.605H579.586V25.8477H596.52V102.605ZM599.273 131.551H523.688V118.016H599.273V131.551ZM540.797 123.758H523.688V94.9883H540.797V123.758ZM537.34 32.4102C542.848 32.4102 547.887 33.582 552.457 35.9258C557.027 38.2695 560.602 41.5313 563.18 45.7109C565.797 49.8906 567.105 54.5586 567.105 59.7148C567.105 64.9883 565.797 69.7344 563.18 73.9531C560.602 78.1328 557.027 81.4141 552.457 83.7969C547.887 86.1406 542.848 87.3125 537.34 87.3125C531.832 87.3125 526.812 86.1406 522.281 83.7969C517.75 81.4141 514.156 78.1328 511.5 73.9531C508.883 69.7344 507.574 64.9883 507.574 59.7148C507.574 54.5586 508.883 49.8906 511.5 45.7109C514.156 41.5313 517.75 38.2695 522.281 35.9258C526.812 33.582 531.832 32.4102 537.34 32.4102ZM537.34 47.1172C534.801 47.0391 532.516 47.5078 530.484 48.5234C528.453 49.5 526.871 50.9453 525.738 52.8594C524.605 54.7734 524.039 57.0586 524.039 59.7148C524.039 62.4102 524.605 64.7539 525.738 66.7461C526.871 68.6992 528.453 70.1641 530.484 71.1406C532.516 72.1172 534.801 72.6055 537.34 72.6055C539.84 72.6055 542.066 72.1172 544.02 71.1406C546.012 70.1641 547.574 68.6992 548.707 66.7461C549.84 64.7539 550.406 62.4102 550.406 59.7148C550.406 57.0586 549.84 54.7734 548.707 52.8594C547.574 50.9453 546.012 49.5 544.02 48.5234C542.066 47.5078 539.84 47.0391 537.34 47.1172ZM623.824 94.0508C633.785 94.0508 642.145 93.8359 648.902 93.4062C655.699 92.9375 662.398 92.0977 669 90.8867L670.699 104.422C663.902 105.789 657.027 106.707 650.074 107.176C643.121 107.605 634.371 107.781 623.824 107.703H614.859V94.0508H623.824ZM663.844 48.5234H631.852V99.207H614.859V34.8711H663.844V48.5234ZM701.227 133.484H684.352V25.6133H701.227V133.484ZM691.559 76.0039H658.863V62.293H691.559V76.0039Z" fill="#3D3D3D"/>
<rect width="170" height="170" rx="85" fill="#FFEA9F"/>
<g clip-path="url(#clip0_796_6372)">
<path d="M136.969 75.2289C131.017 56.6421 115.19 42.5109 95.639 38.9531L97.0023 41.9456C97.0023 45.3704 92.048 48.1301 85.93 48.1301C79.812 48.1301 74.8578 45.3704 74.8578 41.9456L76.1878 38.9531C56.67 42.5109 40.843 56.6421 34.858 75.2289C27.3768 77.5896 21.957 84.5721 21.957 92.8514C21.957 101.43 27.8755 108.645 35.8223 110.673C43.5363 130.889 63.0208 145.253 85.93 145.253C108.839 145.253 128.324 130.889 136.005 110.673C143.985 108.645 149.87 101.43 149.87 92.8514C149.87 84.5721 144.45 77.5896 136.969 75.2289ZM49.7873 74.2314L55.6393 68.5456C58 66.2514 61.7905 66.2846 64.0848 68.6454L79.2135 84.2396C80.2443 85.2704 79.2135 86.9661 77.817 86.5671L74.0265 85.4699C74.7913 86.8664 75.29 88.4291 75.29 90.1249C75.29 95.3451 71.0673 99.5346 65.8803 99.5346C60.6933 99.5346 56.4705 95.3451 56.4705 90.1249C56.4705 86.5671 58.4988 83.4749 61.458 81.9121L50.9843 78.9196C48.9228 78.3211 48.2578 75.7276 49.7873 74.2314ZM115.057 117.024H111.632L109.438 121.945C108.108 125.037 103.719 125.004 102.356 121.912L100.261 117.024H71.566L69.4048 121.945C68.0415 125.037 63.6525 125.004 62.2893 121.912L60.1945 117.024H56.803C55.8388 117.024 55.074 116.259 55.074 115.328C55.074 114.364 55.8388 113.599 56.803 113.599H115.057C115.988 113.599 116.753 114.364 116.753 115.328C116.753 116.259 115.988 117.024 115.057 117.024ZM120.876 78.9196L110.402 81.9121C113.328 83.4749 115.356 86.5671 115.356 90.1249C115.356 95.3451 111.134 99.5346 105.947 99.5346C100.76 99.5346 96.5368 95.3451 96.5368 90.1249C96.5368 88.4291 97.0355 86.8664 97.8335 85.4699L94.0098 86.5671C92.6133 86.9661 91.6158 85.2704 92.6133 84.2396L107.742 68.6454C110.036 66.2846 113.827 66.2514 116.188 68.5456L122.04 74.2314C123.602 75.7276 122.937 78.3211 120.876 78.9196Z" fill="#EC614D"/>
<path d="M96.5346 90.1358C96.5346 95.3295 100.744 99.5389 105.938 99.5389C111.131 99.5389 115.341 95.3295 115.341 90.1358C115.341 86.5581 113.319 83.4858 110.38 81.8965L97.808 85.4842C97.0167 86.8607 96.5346 88.4368 96.5346 90.1358ZM105.938 85.1217C108.707 85.1217 110.952 87.3661 110.952 90.1358C110.952 92.9056 108.707 95.1499 105.938 95.1499C103.168 95.1499 100.924 92.9056 100.924 90.1358C100.924 87.3661 103.168 85.1217 105.938 85.1217Z" fill="white"/>
<path d="M56.4643 90.1358C56.4643 95.3295 60.6737 99.5389 65.8674 99.5389C71.061 99.5389 75.2705 95.3295 75.2705 90.1358C75.2705 88.4334 74.7817 86.8607 73.9937 85.4842L61.4218 81.8965C58.4825 83.4858 56.4609 86.5581 56.4609 90.1358H56.4643ZM70.8848 90.1358C70.8848 92.9056 68.6404 95.1499 65.8707 95.1499C63.101 95.1499 60.8566 92.9056 60.8566 90.1358C60.8566 87.3661 63.101 85.1217 65.8707 85.1217C68.6404 85.1217 70.8848 87.3661 70.8848 90.1358Z" fill="white"/>
<path d="M105.944 95.1512C108.713 95.1512 110.958 92.9064 110.958 90.1371C110.958 87.3679 108.713 85.123 105.944 85.123C103.175 85.123 100.93 87.3679 100.93 90.1371C100.93 92.9064 103.175 95.1512 105.944 95.1512Z" fill="#1D1D1B"/>
<path d="M94.0126 86.5678L97.8197 85.4805L110.392 81.8929L120.865 78.9037C122.927 78.3152 123.582 75.715 122.042 74.2221L116.184 68.5297C113.82 66.2321 110.039 66.2853 107.741 68.6494L92.6094 84.2204C91.6019 85.2578 92.6194 86.9602 94.0092 86.5645L94.0126 86.5678Z" fill="#1D1D1B"/>
<path d="M60.8633 90.1371C60.8633 92.9069 63.1077 95.1512 65.8774 95.1512C68.6471 95.1512 70.8915 92.9069 70.8915 90.1371C70.8915 87.3674 68.6471 85.123 65.8774 85.123C63.1077 85.123 60.8633 87.3674 60.8633 90.1371Z" fill="#1D1D1B"/>
<path d="M50.9616 78.9072L61.4354 81.8964L74.0072 85.4841L77.8143 86.5713C79.2042 86.967 80.2216 85.2646 79.2142 84.2272L64.0821 68.6562C61.7845 66.2922 58.004 66.239 55.6399 68.5365L49.7813 74.2289C48.2418 75.7252 48.8968 78.322 50.9583 78.9105L50.9616 78.9072Z" fill="#1D1D1B"/>
<path d="M85.9166 48.1295C92.0313 48.1295 96.9888 45.3598 96.9888 41.9483L95.6389 38.9359L87.0172 19.7107C86.5916 18.7631 85.2449 18.7631 84.8193 19.7107L76.1976 38.9325L74.8477 41.945C74.8477 45.3598 79.8052 48.1262 85.9199 48.1262L85.9166 48.1295Z" fill="#F3C494"/>
<rect x="55.1289" y="102.124" width="61.9613" height="22.1667" fill="#EC614D"/>
<path d="M86.4922 113.532C95.8732 120.343 102.213 119.822 111.366 113.532" stroke="#95282B" stroke-width="4.42581" stroke-linecap="round"/>
<path d="M61.6172 113.532C70.9982 120.343 77.3384 119.822 86.4907 113.532" stroke="#95282B" stroke-width="4.42581" stroke-linecap="round"/>
</g>
<defs>
<clipPath id="clip0_796_6372">
<rect width="133" height="133" fill="white" transform="translate(19 19)"/>
</clipPath>
</defs>
</svg>
