<svg width="147" height="33" viewBox="0 0 147 33" fill="none" xmlns="http://www.w3.org/2000/svg">
<path d="M35.4703 12.904H56.2303V16.552H48.3343V17.584H55.0543V25.264H36.6463V17.584H43.3663V16.552H35.4703V12.904ZM48.6943 4.24V4.744C48.6943 5.368 48.5823 5.976 48.3583 6.568L55.6543 8.944L53.9263 12.376L45.6703 9.664C44.6943 10.32 43.5103 10.872 42.1183 11.32C40.7263 11.752 39.1583 12.104 37.4143 12.376L35.8543 8.872C38.6383 8.392 40.6383 7.808 41.8543 7.12C43.0863 6.432 43.7023 5.632 43.7023 4.72V4.24H48.6943ZM41.6143 20.872V21.976H50.0863V20.872H41.6143ZM57.7894 12.904H78.5494V16.552H70.6534V17.584H77.3734V25.264H58.9654V17.584H65.6854V16.552H57.7894V12.904ZM71.0134 4.24V4.744C71.0134 5.368 70.9014 5.976 70.6774 6.568L77.9734 8.944L76.2454 12.376L67.9894 9.664C67.0134 10.32 65.8294 10.872 64.4374 11.32C63.0454 11.752 61.4774 12.104 59.7334 12.376L58.1734 8.872C60.9574 8.392 62.9574 7.808 64.1734 7.12C65.4054 6.432 66.0214 5.632 66.0214 4.72V4.24H71.0134ZM63.9334 20.872V21.976H72.4054V20.872H63.9334ZM93.5965 24.544H79.4605V20.416H80.9005V9.088H79.4605V4.96H93.5965V9.088H92.1565V20.416H93.5965V24.544ZM99.6685 11.512H101.756V15.64H99.6685V24.784H94.7005V4.48H99.6685V11.512ZM85.6285 20.416H87.4285V9.088H85.6285V20.416ZM122.708 4.48V19.048H117.74V4.48H122.708ZM108.716 18.184V21.16H122.948V25.264H103.748V18.184H108.716ZM102.02 10.744C102.02 9.768 102.196 8.896 102.548 8.128C102.9 7.344 103.388 6.68 104.012 6.136C104.636 5.592 105.38 5.184 106.244 4.912C107.108 4.624 108.06 4.48 109.1 4.48C110.14 4.48 111.092 4.624 111.956 4.912C112.82 5.184 113.564 5.592 114.188 6.136C114.812 6.68 115.3 7.344 115.652 8.128C116.004 8.896 116.18 9.768 116.18 10.744C116.18 11.72 116.004 12.592 115.652 13.36C115.3 14.128 114.812 14.784 114.188 15.328C113.564 15.856 112.82 16.264 111.956 16.552C111.092 16.84 110.14 16.984 109.1 16.984C108.06 16.984 107.108 16.84 106.244 16.552C105.38 16.264 104.636 15.856 104.012 15.328C103.388 14.784 102.9 14.128 102.548 13.36C102.196 12.592 102.02 11.72 102.02 10.744ZM109.1 13.096C109.388 13.096 109.668 13.048 109.94 12.952C110.228 12.84 110.476 12.688 110.684 12.496C110.908 12.288 111.084 12.04 111.212 11.752C111.356 11.464 111.428 11.128 111.428 10.744C111.428 10.36 111.356 10.024 111.212 9.736C111.084 9.432 110.908 9.184 110.684 8.992C110.476 8.784 110.228 8.632 109.94 8.536C109.668 8.424 109.388 8.368 109.1 8.368C108.812 8.368 108.524 8.424 108.236 8.536C107.964 8.632 107.716 8.784 107.492 8.992C107.284 9.184 107.108 9.432 106.964 9.736C106.836 10.024 106.772 10.36 106.772 10.744C106.772 11.128 106.836 11.464 106.964 11.752C107.108 12.04 107.284 12.288 107.492 12.496C107.716 12.688 107.964 12.84 108.236 12.952C108.524 13.048 108.812 13.096 109.1 13.096ZM137.275 4.96V9.088H130.027V20.416H137.515V24.544H125.059V4.96H137.275ZM145.027 24.784H140.059V16.264L135.619 17.752V13.216L140.059 11.728V4.48H145.027V24.784Z" fill="#7152FB"/>
<rect width="32" height="32" rx="16" fill="#FFEA9F"/>
<path d="M25.2892 14.1466C24.2152 10.7926 21.3592 8.24259 17.8312 7.60059L18.0772 8.14059C18.0772 8.75859 17.1832 9.25659 16.0792 9.25659C14.9752 9.25659 14.0812 8.75859 14.0812 8.14059L14.3212 7.60059C10.7992 8.24259 7.94316 10.7926 6.86316 14.1466C5.51316 14.5726 4.53516 15.8326 4.53516 17.3266C4.53516 18.8746 5.60316 20.1766 7.03716 20.5426C8.42916 24.1906 11.9452 26.7826 16.0792 26.7826C20.2132 26.7826 23.7292 24.1906 25.1152 20.5426C26.5552 20.1766 27.6172 18.8746 27.6172 17.3266C27.6172 15.8326 26.6392 14.5726 25.2892 14.1466ZM9.55716 13.9666L10.6132 12.9406C11.0392 12.5266 11.7232 12.5326 12.1372 12.9586L14.8672 15.7726C15.0532 15.9586 14.8672 16.2646 14.6152 16.1926L13.9312 15.9946C14.0692 16.2466 14.1592 16.5286 14.1592 16.8346C14.1592 17.7766 13.3972 18.5326 12.4612 18.5326C11.5252 18.5326 10.7632 17.7766 10.7632 16.8346C10.7632 16.1926 11.1292 15.6346 11.6632 15.3526L9.77316 14.8126C9.40116 14.7046 9.28116 14.2366 9.55716 13.9666ZM21.3352 21.6886H20.7172L20.3212 22.5766C20.0812 23.1346 19.2892 23.1286 19.0432 22.5706L18.6652 21.6886H13.4872L13.0972 22.5766C12.8512 23.1346 12.0592 23.1286 11.8132 22.5706L11.4352 21.6886H10.8232C10.6492 21.6886 10.5112 21.5506 10.5112 21.3826C10.5112 21.2086 10.6492 21.0706 10.8232 21.0706H21.3352C21.5032 21.0706 21.6412 21.2086 21.6412 21.3826C21.6412 21.5506 21.5032 21.6886 21.3352 21.6886ZM22.3852 14.8126L20.4952 15.3526C21.0232 15.6346 21.3892 16.1926 21.3892 16.8346C21.3892 17.7766 20.6272 18.5326 19.6912 18.5326C18.7552 18.5326 17.9932 17.7766 17.9932 16.8346C17.9932 16.5286 18.0832 16.2466 18.2272 15.9946L17.5372 16.1926C17.2852 16.2646 17.1052 15.9586 17.2852 15.7726L20.0152 12.9586C20.4292 12.5326 21.1132 12.5266 21.5392 12.9406L22.5952 13.9666C22.8772 14.2366 22.7572 14.7046 22.3852 14.8126Z" fill="#EC614D"/>
<path d="M17.9928 16.8364C17.9928 17.7736 18.7524 18.5332 19.6896 18.5332C20.6268 18.5332 21.3864 17.7736 21.3864 16.8364C21.3864 16.1908 21.0216 15.6364 20.4912 15.3496L18.2226 15.997C18.0798 16.2454 17.9928 16.5298 17.9928 16.8364ZM19.6896 15.9316C20.1894 15.9316 20.5944 16.3366 20.5944 16.8364C20.5944 17.3362 20.1894 17.7412 19.6896 17.7412C19.1898 17.7412 18.7848 17.3362 18.7848 16.8364C18.7848 16.3366 19.1898 15.9316 19.6896 15.9316Z" fill="white"/>
<path d="M10.7623 16.8364C10.7623 17.7736 11.5219 18.5332 12.4591 18.5332C13.3963 18.5332 14.1559 17.7736 14.1559 16.8364C14.1559 16.5292 14.0677 16.2454 13.9255 15.997L11.6569 15.3496C11.1265 15.6364 10.7617 16.1908 10.7617 16.8364H10.7623ZM13.3645 16.8364C13.3645 17.3362 12.9595 17.7412 12.4597 17.7412C11.9599 17.7412 11.5549 17.3362 11.5549 16.8364C11.5549 16.3366 11.9599 15.9316 12.4597 15.9316C12.9595 15.9316 13.3645 16.3366 13.3645 16.8364Z" fill="white"/>
<path d="M19.69 17.7412C20.1897 17.7412 20.5948 17.3361 20.5948 16.8364C20.5948 16.3367 20.1897 15.9316 19.69 15.9316C19.1902 15.9316 18.7852 16.3367 18.7852 16.8364C18.7852 17.3361 19.1902 17.7412 19.69 17.7412Z" fill="#1D1D1B"/>
<path d="M17.5375 16.1926L18.2245 15.9964L20.4931 15.349L22.3831 14.8096C22.7551 14.7034 22.8733 14.2342 22.5955 13.9648L21.5383 12.9376C21.1117 12.523 20.4295 12.5326 20.0149 12.9592L17.2843 15.769C17.1025 15.9562 17.2861 16.2634 17.5369 16.192L17.5375 16.1926Z" fill="#1D1D1B"/>
<path d="M11.5547 16.8364C11.5547 17.3362 11.9597 17.7412 12.4595 17.7412C12.9593 17.7412 13.3643 17.3362 13.3643 16.8364C13.3643 16.3366 12.9593 15.9316 12.4595 15.9316C11.9597 15.9316 11.5547 16.3366 11.5547 16.8364Z" fill="#1D1D1B"/>
<path d="M9.76831 14.8099L11.6583 15.3493L13.9269 15.9967L14.6139 16.1929C14.8647 16.2643 15.0483 15.9571 14.8665 15.7699L12.1359 12.9601C11.7213 12.5335 11.0391 12.5239 10.6125 12.9385L9.55531 13.9657C9.27751 14.2357 9.39571 14.7043 9.76771 14.8105L9.76831 14.8099Z" fill="#1D1D1B"/>
<path d="M16.0755 9.25645C17.1789 9.25645 18.0735 8.75665 18.0735 8.14105L17.8299 7.59745L16.2741 4.12825C16.1973 3.95725 15.9543 3.95725 15.8775 4.12825L14.3217 7.59685L14.0781 8.14045C14.0781 8.75665 14.9727 9.25585 16.0761 9.25585L16.0755 9.25645Z" fill="#F3C494"/>
<rect x="9" y="19" width="14" height="4" fill="#EC614D"/>
<path d="M16.1797 21.0586C17.8725 22.2876 19.0166 22.1935 20.6681 21.0586" stroke="#95282B" stroke-linecap="round"/>
<path d="M11.6914 21.0586C13.3842 22.2876 14.5283 22.1935 16.1799 21.0586" stroke="#95282B" stroke-linecap="round"/>
</svg>
