<svg width="1024" height="1024" viewBox="0 0 1024 1024" fill="none" xmlns="http://www.w3.org/2000/svg">
<g filter="url(#filter0_i_697_6574)">
<path d="M908.27 432.901C862.445 289.797 740.59 180.997 590.062 153.605L600.558 176.645C600.558 203.013 562.414 224.261 515.31 224.261C468.206 224.261 430.062 203.013 430.062 176.645L440.302 153.605C290.03 180.997 168.174 289.797 122.094 432.901C64.4936 451.077 22.7656 504.837 22.7656 568.581C22.7656 634.629 68.3336 690.181 129.518 705.797C188.91 861.445 338.926 972.038 515.31 972.038C691.694 972.038 841.709 861.445 900.845 705.797C962.285 690.181 1007.6 634.629 1007.6 568.581C1007.6 504.837 965.87 451.077 908.27 432.901ZM237.038 425.221L282.094 381.445C300.27 363.781 329.454 364.037 347.118 382.213L463.598 502.277C471.534 510.214 463.598 523.269 452.846 520.197L423.662 511.749C429.55 522.501 433.39 534.533 433.39 547.589C433.39 587.781 400.878 620.037 360.942 620.037C321.006 620.037 288.494 587.781 288.494 547.589C288.494 520.197 304.11 496.389 326.894 484.357L246.254 461.317C230.382 456.709 225.262 436.741 237.038 425.221ZM739.566 754.693H713.198L696.302 792.581C686.062 816.389 652.27 816.133 641.774 792.326L625.646 754.693H404.718L388.078 792.581C377.582 816.389 343.79 816.133 333.294 792.326L317.166 754.693H291.054C283.63 754.693 277.742 748.805 277.742 741.637C277.742 734.213 283.63 728.326 291.054 728.326H739.566C746.734 728.326 752.622 734.213 752.622 741.637C752.622 748.805 746.734 754.693 739.566 754.693ZM784.366 461.317L703.726 484.357C726.254 496.389 741.87 520.197 741.87 547.589C741.87 587.781 709.358 620.037 669.422 620.037C629.486 620.037 596.974 587.781 596.974 547.589C596.974 534.533 600.814 522.501 606.958 511.749L577.518 520.197C566.766 523.269 559.086 510.214 566.766 502.277L683.246 382.213C700.91 364.037 730.094 363.781 748.27 381.445L793.326 425.221C805.358 436.741 800.238 456.709 784.366 461.317Z" fill="#8DBF89"/>
</g>
<path d="M597.022 547.684C597.022 587.671 629.431 620.081 669.418 620.081C709.406 620.081 741.815 587.671 741.815 547.684C741.815 520.138 726.25 496.484 703.62 484.247L606.826 511.869C600.734 522.468 597.022 534.602 597.022 547.684ZM669.418 509.079C690.743 509.079 708.023 526.359 708.023 547.684C708.023 569.009 690.743 586.289 669.418 586.289C648.094 586.289 630.814 569.009 630.814 547.684C630.814 526.359 648.094 509.079 669.418 509.079Z" fill="white"/>
<path d="M288.572 547.684C288.572 587.671 320.982 620.081 360.969 620.081C400.956 620.081 433.366 587.671 433.366 547.684C433.366 534.577 429.603 522.468 423.536 511.869L326.742 484.247C304.112 496.484 288.547 520.138 288.547 547.684H288.572ZM399.6 547.684C399.6 569.009 382.32 586.289 360.995 586.289C339.67 586.289 322.39 569.009 322.39 547.684C322.39 526.359 339.67 509.079 360.995 509.079C382.32 509.079 399.6 526.359 399.6 547.684Z" fill="white"/>
<circle cx="515.415" cy="552.415" r="409.415" fill="#8CBD88"/>
<path d="M674.468 586.298C695.789 586.298 713.073 569.014 713.073 547.693C713.073 526.372 695.789 509.088 674.468 509.088C653.147 509.088 635.863 526.372 635.863 547.693C635.863 569.014 653.147 586.298 674.468 586.298Z" fill="#1D1D1B"/>
<g filter="url(#filter1_i_697_6574)">
<path d="M515.238 224.293C562.316 224.293 600.486 202.968 600.486 176.702L590.092 153.509L523.712 5.48958C520.435 -1.80642 510.067 -1.80642 506.79 5.48958L440.409 153.483L430.016 176.677C430.016 202.968 468.185 224.267 515.264 224.267L515.238 224.293Z" fill="#F3C494"/>
</g>
<rect x="264" y="652" width="514" height="175" fill="#8DBF89"/>
<path d="M674.605 586.298C695.926 586.298 713.21 569.014 713.21 547.693C713.21 526.372 695.926 509.088 674.605 509.088C653.284 509.088 636 526.372 636 547.693C636 569.014 653.284 586.298 674.605 586.298Z" fill="#1D1D1B"/>
<path d="M654.137 538C654.137 543.524 658.613 548 664.137 548C669.661 548 674.137 543.524 674.137 538C674.137 532.476 669.661 528 664.137 528C658.613 528 654.137 532.476 654.137 538Z" fill="white"/>
<path d="M430 827C502.227 793.74 551.041 796.285 621.507 827" stroke="#B42356" stroke-width="30" stroke-linecap="round"/>
<g filter="url(#filter2_d_697_6574)">
<circle cx="512" cy="646" r="26" fill="#D9D9D9"/>
</g>
<path d="M356.605 586.298C377.926 586.298 395.21 569.014 395.21 547.693C395.21 526.372 377.926 509.088 356.605 509.088C335.284 509.088 318 526.372 318 547.693C318 569.014 335.284 586.298 356.605 586.298Z" fill="#1D1D1B"/>
<path d="M341.137 538C341.137 543.524 345.613 548 351.137 548C356.661 548 361.137 543.524 361.137 538C361.137 532.476 356.661 528 351.137 528C345.613 528 341.137 532.476 341.137 538Z" fill="white"/>
<path d="M733.379 482.276C742.559 471.962 741.635 456.156 731.321 446.977C717.354 434.546 705.567 424.055 691.6 411.624C681.286 402.445 665.48 403.361 656.3 413.675C647.121 423.989 648.041 439.791 658.354 448.971L698.084 484.33C708.398 493.509 724.2 492.589 733.379 482.276Z" fill="#1D1D1B"/>
<path d="M615.626 483.025C605.714 473.413 605.476 457.582 615.088 447.671C628.106 434.249 639.092 422.921 652.11 409.5C661.723 399.588 677.553 399.343 687.465 408.955C697.376 418.568 697.618 434.395 688.005 444.307L650.977 482.485C641.364 492.396 625.537 492.638 615.626 483.025Z" fill="#1D1D1B"/>
<path d="M415.379 482.276C424.559 471.962 423.635 456.156 413.321 446.977C399.354 434.546 387.567 424.055 373.6 411.624C363.286 402.445 347.48 403.361 338.3 413.675C329.121 423.989 330.041 439.791 340.354 448.971L380.084 484.33C390.398 493.509 406.2 492.589 415.379 482.276Z" fill="#1D1D1B"/>
<path d="M297.626 483.025C287.714 473.413 287.476 457.582 297.088 447.671C310.106 434.249 321.092 422.921 334.11 409.5C343.723 399.588 359.553 399.343 369.465 408.955C379.376 418.568 379.618 434.395 370.005 444.307L332.977 482.485C323.364 492.396 307.537 492.638 297.626 483.025Z" fill="#1D1D1B"/>
<g clip-path="url(#clip0_697_6574)" filter="url(#filter3_i_697_6574)">
<path d="M789.885 773.153C789.885 826.954 743.149 870.562 685.499 870.562C627.849 870.562 581.113 826.954 581.113 773.153C581.113 731.551 643.535 661.68 671.841 619.503C678.161 610.077 692.837 610.077 699.165 619.503C727.47 661.68 789.885 731.551 789.885 773.153Z" fill="#E9F1FF"/>
</g>
<defs>
<filter id="filter0_i_697_6574" x="18.7656" y="149.605" width="988.832" height="822.432" filterUnits="userSpaceOnUse" color-interpolation-filters="sRGB">
<feFlood flood-opacity="0" result="BackgroundImageFix"/>
<feBlend mode="normal" in="SourceGraphic" in2="BackgroundImageFix" result="shape"/>
<feColorMatrix in="SourceAlpha" type="matrix" values="0 0 0 0 0 0 0 0 0 0 0 0 0 0 0 0 0 0 127 0" result="hardAlpha"/>
<feOffset dx="-10" dy="-10"/>
<feGaussianBlur stdDeviation="2"/>
<feComposite in2="hardAlpha" operator="arithmetic" k2="-1" k3="1"/>
<feColorMatrix type="matrix" values="0 0 0 0 0 0 0 0 0 0 0 0 0 0 0 0 0 0 0.25 0"/>
<feBlend mode="normal" in2="shape" result="effect1_innerShadow_697_6574"/>
</filter>
<filter id="filter1_i_697_6574" x="426.016" y="0.0175781" width="174.469" height="228.275" filterUnits="userSpaceOnUse" color-interpolation-filters="sRGB">
<feFlood flood-opacity="0" result="BackgroundImageFix"/>
<feBlend mode="normal" in="SourceGraphic" in2="BackgroundImageFix" result="shape"/>
<feColorMatrix in="SourceAlpha" type="matrix" values="0 0 0 0 0 0 0 0 0 0 0 0 0 0 0 0 0 0 127 0" result="hardAlpha"/>
<feOffset dx="-10" dy="4"/>
<feGaussianBlur stdDeviation="2"/>
<feComposite in2="hardAlpha" operator="arithmetic" k2="-1" k3="1"/>
<feColorMatrix type="matrix" values="0 0 0 0 0 0 0 0 0 0 0 0 0 0 0 0 0 0 0.25 0"/>
<feBlend mode="normal" in2="shape" result="effect1_innerShadow_697_6574"/>
</filter>
<filter id="filter2_d_697_6574" x="482" y="620" width="60" height="60" filterUnits="userSpaceOnUse" color-interpolation-filters="sRGB">
<feFlood flood-opacity="0" result="BackgroundImageFix"/>
<feColorMatrix in="SourceAlpha" type="matrix" values="0 0 0 0 0 0 0 0 0 0 0 0 0 0 0 0 0 0 127 0" result="hardAlpha"/>
<feOffset dy="4"/>
<feGaussianBlur stdDeviation="2"/>
<feComposite in2="hardAlpha" operator="out"/>
<feColorMatrix type="matrix" values="0 0 0 0 0 0 0 0 0 0 0 0 0 0 0 0 0 0 0.25 0"/>
<feBlend mode="normal" in2="BackgroundImageFix" result="effect1_dropShadow_697_6574"/>
<feBlend mode="normal" in="SourceGraphic" in2="effect1_dropShadow_697_6574" result="shape"/>
</filter>
<filter id="filter3_i_697_6574" x="534" y="590" width="299" height="299" filterUnits="userSpaceOnUse" color-interpolation-filters="sRGB">
<feFlood flood-opacity="0" result="BackgroundImageFix"/>
<feBlend mode="normal" in="SourceGraphic" in2="BackgroundImageFix" result="shape"/>
<feColorMatrix in="SourceAlpha" type="matrix" values="0 0 0 0 0 0 0 0 0 0 0 0 0 0 0 0 0 0 127 0" result="hardAlpha"/>
<feOffset dx="-10" dy="-10"/>
<feGaussianBlur stdDeviation="2"/>
<feComposite in2="hardAlpha" operator="arithmetic" k2="-1" k3="1"/>
<feColorMatrix type="matrix" values="0 0 0 0 0 0 0 0 0 0 0 0 0 0 0 0 0 0 0.25 0"/>
<feBlend mode="normal" in2="shape" result="effect1_innerShadow_697_6574"/>
</filter>
<clipPath id="clip0_697_6574">
<rect width="295" height="295" fill="white" transform="translate(538 594)"/>
</clipPath>
</defs>
</svg>
