<svg width="32" height="32" viewBox="0 0 32 32" fill="none" xmlns="http://www.w3.org/2000/svg">
<path d="M15.5311 31.7283C24.0829 31.7283 31.0154 24.7958 31.0154 16.244C31.0154 7.69231 24.0829 0.759766 15.5311 0.759766C6.97942 0.759766 0.046875 7.69231 0.046875 16.244C0.046875 24.7958 6.97942 31.7283 15.5311 31.7283Z" fill="#FFC84D"/>
<path d="M11.4799 15.1433C12.5129 15.1433 13.3504 14.3059 13.3504 13.2728C13.3504 12.2398 12.5129 11.4023 11.4799 11.4023C10.4468 11.4023 9.60938 12.2398 9.60938 13.2728C9.60938 14.3059 10.4468 15.1433 11.4799 15.1433Z" fill="black"/>
<path d="M19.5814 15.1433C20.6145 15.1433 21.4519 14.3059 21.4519 13.2728C21.4519 12.2398 20.6145 11.4023 19.5814 11.4023C18.5484 11.4023 17.7109 12.2398 17.7109 13.2728C17.7109 14.3059 18.5484 15.1433 19.5814 15.1433Z" fill="black"/>
<path d="M15.5314 22.2924C14.0414 22.2924 12.8778 22.0349 12.0842 21.7748C11.6727 21.6403 11.3356 22.1296 11.6037 22.4694C12.3204 23.3781 13.583 24.4602 15.5314 24.4602C17.4798 24.4602 18.7424 23.3781 19.4591 22.4694C19.7272 22.1296 19.391 21.6403 18.9786 21.7748C18.185 22.034 17.0214 22.2924 15.5314 22.2924Z" fill="#FF6D00"/>
<path d="M10.2744 17.208C10.2744 17.208 7.42969 20.2597 7.42969 22.7213C7.42969 24.2918 8.70382 25.5624 10.2744 25.5633C11.8449 25.5633 13.119 24.2927 13.119 22.7213C13.119 20.2597 10.2744 17.208 10.2744 17.208Z" fill="white"/>
</svg>
