<svg width="22" height="24" viewBox="0 0 22 24" fill="none" xmlns="http://www.w3.org/2000/svg">
<path d="M14.4559 20.209C14.4559 22.3028 12.8219 23.9999 10.8061 23.9999C8.7902 23.9999 7.15625 22.3028 7.15625 20.209H14.4559Z" fill="#FF9E00"/>
<path d="M8.60156 2.28603C8.60156 1.02354 9.58701 0 10.8025 0C12.0181 0 13.0035 1.02354 13.0035 2.28603H8.60222H8.60156Z" fill="#FF9E00"/>
<path d="M1.74832 11.2027C1.74832 5.80001 6.13332 1.46149 11.408 1.81621C16.2218 2.13978 19.8619 6.51486 19.8619 11.5249V15.64L21.4026 18.4114C21.8465 19.2102 21.2918 20.2087 20.4035 20.2087H1.20606C0.318371 20.2087 -0.236923 19.2102 0.206922 18.4114L1.74767 15.64L1.74832 11.2027Z" fill="#FFC000"/>
</svg>
