<svg width="19" height="22" viewBox="0 0 19 22" fill="none" xmlns="http://www.w3.org/2000/svg">
<path d="M10.3773 21.1228C11.5164 19.9191 13.5779 17.7553 15.4054 15.9193C18.8874 12.419 19.1249 6.44548 15.6003 2.98906C13.9068 1.32847 11.7041 0.498783 9.50009 0.500001C7.29734 0.500001 5.09459 1.32847 3.4011 2.98906C-0.125984 6.4467 0.11281 12.4202 3.59603 15.9205C5.42354 17.7565 7.48862 19.9203 8.62776 21.124C9.10291 21.6259 9.90092 21.6247 10.3761 21.124L10.3773 21.1228Z" fill="#6BA4FF"/>
<path d="M9.49668 11.7981C10.9252 11.7981 12.0832 10.64 12.0832 9.21153C12.0832 7.78303 10.9252 6.625 9.49668 6.625C8.06818 6.625 6.91016 7.78303 6.91016 9.21153C6.91016 10.64 8.06818 11.7981 9.49668 11.7981Z" fill="#FBFBFB"/>
</svg>
